<svg xmlns="http://www.w3.org/2000/svg" width="128" height="37" viewBox="0 0 128 37" fill="none">
<path d="M125.119 36.6408H128V17.9833H120.638V21.9202H123.359V30.0563C123.359 31.8706 122.612 32.8023 121.065 32.8023C119.519 32.8023 118.772 31.8706 118.772 30.0563V6.94529C118.772 5.13105 119.519 4.19769 121.012 4.19769C122.504 4.19769 123.253 5.13105 123.253 6.94529V12.4897H127.889V7.09949C127.889 2.74597 125.441 0 121.012 0C116.478 0 113.754 2.74597 113.754 7.09949V30.1105C113.754 34.464 116.207 37 119.995 37C121.915 37 123.303 36.3275 124.157 35.0316L125.119 36.6408ZM100.729 6.94529C100.729 5.13105 101.477 4.19769 102.971 4.19769C104.465 4.19769 105.211 5.13105 105.211 6.94529V30.0596C105.211 31.8739 104.465 32.8056 102.971 32.8056C101.477 32.8056 100.729 31.8739 100.729 30.0596V6.94529ZM108.302 35.0857C109.586 33.7915 110.22 32.0806 110.22 29.9038V7.10277C110.22 2.74597 107.506 0 102.971 0C98.4358 0 95.7148 2.74597 95.7148 7.09949V29.9005C95.7148 32.0773 96.3559 33.7882 97.6365 35.0824C98.917 36.3767 100.677 37 102.971 37C105.264 37 107.025 36.3783 108.305 35.0824L108.302 35.0857ZM83.1177 4.56021H84.2367C86.3183 4.56021 87.3852 5.90858 87.3852 8.66111V28.3487C87.3852 31.0963 86.3183 32.4496 84.2367 32.4496H83.1177V4.56021ZM84.9317 36.6408C89.359 36.6408 92.3459 33.9456 92.3459 28.5046V8.49215C92.3459 3.05107 89.359 0.355959 84.9317 0.355959H78.1553V36.6408H84.9317ZM71.2224 36.6408L75.1179 0.36252H70.3692L68.3499 23.2702L65.8342 0.36252H60.9812L58.4739 23.2702L56.6598 0.36252H51.5376L55.4853 36.6408H60.9273L63.3269 14.6156L65.5683 36.6408H71.2224ZM49.1194 36.6408V32.4431H40.9581V19.0725H46.2403V14.9273H40.9581V4.56021H48.9057V0.36252H35.9957V36.6408H49.1194ZM32.4771 36.6408C32.2467 35.0775 32.1046 33.5031 32.0513 31.9247L31.8376 24.3594C31.6778 21.2427 30.557 19.3317 28.4721 18.6575C30.9278 17.6733 32.1551 15.4446 32.154 11.9714V7.67033C32.154 2.53928 29.1671 0.36252 24.6859 0.36252H17.9145V36.6408H22.8753V20.5242H23.6746C25.7562 20.5242 26.7692 21.7151 26.823 24.1002L26.9829 31.303C26.9829 33.6865 27.1512 35.4499 27.5163 36.6408H32.4771ZM22.8753 4.45686H24.4217C26.2896 4.45686 27.2488 5.59691 27.2488 7.82617V13.0606C27.2488 15.2882 26.1297 16.5332 24.3696 16.5332H22.8753V4.45686ZM4.96074 19.6942H6.50887C8.37504 19.6942 9.49575 20.8867 9.49575 23.011V28.9163C9.49575 31.3522 8.58875 32.5431 6.72258 32.5431H4.96074V19.6942ZM4.96074 4.45686H6.39445C8.31615 4.45686 9.27531 5.59691 9.27531 7.92951V12.5931C9.27531 14.6156 8.20845 15.8065 6.34228 15.8065H4.96074V4.45686ZM7.04231 36.6408C11.5235 36.6408 14.4565 34.049 14.4565 28.9196V23.5294C14.4565 20.4717 13.3375 18.4442 11.1499 17.46C13.1692 16.5283 14.1906 14.5074 14.1906 11.4481V7.56699C14.1906 2.43594 11.2576 0.36252 6.98846 0.36252H0V36.6408H7.04231Z" fill="white"/>
<script xmlns=""/></svg>