<svg xmlns="http://www.w3.org/2000/svg" viewBox="0 0 222.09 66.98"><g id="Layer_2" data-name="Layer 2"><g id="Layer_1-2" data-name="Layer 1"><path fill="currentcolor" d="M222.09,2H190.9L169.75,20.52V2H147.42v23.3C144.1,10.31,131.76,2,113,2H77.74V19.53C71.45,6.72,57.14,0,40.49,0,16.18,0,0,13.83,0,34.35,0,52.61,14.73,67,40,67H41l.62,0a56.69,56.69,0,0,0,20.19-3.69,26.94,26.94,0,0,0,16-19.56V65h35c19.4,0,31.44-7.82,34.7-22.35V65h22.33V43.93L176,39l18.53,26h27.29l-29.1-39.51ZM113.7,11.76l.76-.39.69-.28H116l.39.14.14.2.36.06.33.18.07.28-.06.3-.6.45-.16.27-.24.29-.13.11-.23.3-.63.41-.37,0-.45-.06-.28-.21-.16-.4-.1-.18-.4-.28-.1-.19v-.2l-.09-.23,0-.3Zm-8.12,0,.76-.39.7-.28h.89l.38.14.15.2.36.06.33.18.07.28-.07.3-.6.45-.15.27-.25.29-.13.11-.23.3-.62.41-.37,0-.46-.06-.27-.21-.16-.4-.1-.18-.4-.28-.11-.19v-.2l-.09-.23,0-.3ZM22.42,33.63c0-10,5.06-16.73,17.89-16.73,9,0,13.56,3.08,16.46,9.32l21-6.48v9.19H41.22V43.75H55.05c-.55,3.07-3.17,6.33-13.38,6.33-12.74,0-19.25-5.87-19.25-16.45m97.93-7-3.95.47-.26,1c-2.5.66-4,.3-6.69.48l0,.6h0c3,0,8.64,0,10.59-1.22.11,1.21-.15,3.16-1,3.91a3.06,3.06,0,0,1-1.64.57c-.68.09-1.43.12-2.1.2l-2.94.53s1.43,0-.74.62a15.25,15.25,0,0,1-1.61.32,1.36,1.36,0,0,0,.3.13l.7.25.25,0a8.18,8.18,0,0,0,1.4,0c.47,0,.8,0,1.07,0a1.74,1.74,0,0,1,1,.26l3.59-.08c-.5,1.77-.41,1.89-2.07,2.6-.6.25-1.11.5-1.65.68a5.92,5.92,0,0,1-1.8.36l-.8,1.4,4-.45a11.8,11.8,0,0,1-5,4.91v9.4c-1.71-.11-1.4.21-1.42-1.59l0-8c-2-.62-4.34-3.28-5.34-5.34l.26.17-.26-.17c-1.58-1.49-3.33-6.68-3.51-9.38h0c-.79-2.68-.88-5.46,1.16-7,2.57-1.89,4.57-1.31,7.57-2.09.37-2.13,0-4.51.11-5.77.15-1.43-.21-.76.61-1.13,1,.31.73-.23.83,1.42v5.66c3.77-.15,8.11,1.13,8.94,3.45l-5.81.32a15.07,15.07,0,0,0,1.6,1.12h0a10.91,10.91,0,0,0,4.52-.58Z"></path></g></g></svg>