<svg id="Layer_1" data-name="Layer 1" xmlns="http://www.w3.org/2000/svg" viewBox="0 0 12827.54 4087.32"><path fill="#F33E3E" d="M13505.66,6123.05c-3.14,11.87-6,23.82-9.46,35.59-13.73,46.48-39.2,85.72-74.25,118.93-29.3,27.76-63.14,48.6-100.63,63.11-111.35,43.08-222.44,86.87-334.5,128-103,37.85-160.17,110.49-175.79,217.86-9.83,67.61-9.34,135.66-9.51,203.67-.44,173.43-.22,346.87-1.07,520.3-.33,67.19-1.74,134.42-4.68,201.54-2.84,65.14-20.88,125.83-61.81,178.09-38.33,48.93-88.82,79.49-148.64,94-66.81,16.27-133.64,14.62-198.73-8.37-111.48-39.37-173-120.43-185.67-236.11-6.55-60-4.84-120.95-5.08-181.48q-1.56-408.27-1.9-816.55c0-170.93,1.27-341.87,2.78-512.8.39-43.85,1.06-87.8,13.06-130.81,32.09-115,127.26-193.74,246.23-203.95a403.58,403.58,0,0,1,130.82,10.17c57.57,14,102.83,45.4,134.93,95,16.22,25.05,30.82,51.15,46.18,76.76,5.08,8.47,10.25,16.87,16.8,27.64,8.05-6.77,14.78-12.41,21.49-18.08,41.21-34.81,81.13-71.29,123.91-104,60.58-46.39,128.22-79,203.77-94.3,153.92-31.23,305.25,53.54,357.68,201.46,5.73,16.17,9.43,33.05,14.07,49.6Z" transform="translate(-678.12 -4938.96)"></path><path fill="#F33E3E" d="M8465.32,7862.58c3.1-69.66,2.24-120.59-2.35-125.36a19.39,19.39,0,0,0-7.08-4.62c-11.32-3.61-16.49,5-22.7,11.46-99.51,103.12-223.05,155.52-363.62,172-312.73,36.61-636.41-118-808.56-379.52-101.44-154.08-168.63-321.23-194.56-504.12-15.44-109-15.68-218.21-3-327.62,8.63-74.29,22.66-147.43,40.89-219.89,3.62-14.35,5.21-29.33,6.53-44.12,1.83-20.43-8-35.17-25.51-44.72-9.43-5.14-19.16-10.3-29.39-13.34-198.67-59.08-282.18-333.08-105.24-503.67,110.34-106.38,289.5-112.26,402.17-13.77,14.27,12.48,26.28,27.58,39,41.79,6.07,6.78,10.93,14.66,17,21.43,22.5,25,40.88,28,70.45,11.36,9.38-5.29,18.33-11.37,27.32-17.34q165.69-110,363.22-133.43c84.64-9.95,169.19-10.67,253.2,3.12,107.63,17.67,200.71,66.9,283.41,136.87,8.24,7,16.23,14.28,24.85,20.75,23.62,17.72,38.48,16,57.63-6.86,9-10.81,16.78-22.7,25.69-33.63,45.39-55.67,101.67-94.47,172.27-111.65,100.15-24.37,246.06,8,317.44,125.15,81.37,133.55,82,268,.71,402a247,247,0,0,1-63.09,69.82c-16.27,12.23-17.67,19.28-6.09,35.56,78.06,109.63,106.75,234.77,111.67,366,5.87,156.69,9.23,313.51,11.13,470.31,2.38,196.63,4.56,393.33,2.14,589.94-1.4,113.52-8.55,227.26-19.37,340.3-16,167.2-69.18,322.25-170,458.7C8761.85,8804,8614.91,8900.64,8442,8960.79c-92.34,32.12-187.58,49.51-284.85,55.51-77.86,4.8-155.87,10.09-233.81,10-79.64-.12-159.15-7.81-238.06-20-129.48-20-254.6-54.21-371.05-115.45-32.95-17.33-65.83-36-95.19-58.69-82.17-63.43-125-147.09-118.95-252.41,6.22-107.66,87.16-245.67,258.64-249.78A345,345,0,0,1,7481,8349.09c78.33,27.17,156.36,55.22,234.72,82.29,113.54,39.22,230.34,57.07,350.29,47.31,42.77-3.48,85.87-10.26,127.33-21.19,88.21-23.26,152.4-77.94,194.08-159.19,9.69-18.9,39.7-73.32,60.8-183.62C8459.65,8055,8470.66,7968.75,8465.32,7862.58Zm-483-436.3c22.46-3.53,60-6.36,95.82-15.62,125.07-32.28,219.79-107.75,288.1-215.24,92.87-146.13,115.46-305.38,76.49-473-32-137.51-102.56-251.24-219.15-333.42-157.08-110.74-356-109.73-512.54,1.69-75.95,54.06-134.14,123.64-174.12,207.64-49.25,103.45-67.29,212.44-56.19,326.74,10.39,107.13,42.88,206.13,105.69,293.78C7679.72,7349,7805.59,7420.66,7982.36,7426.28Z" transform="translate(-678.12 -4938.96)"></path><path fill="#F33E3E" d="M678.34,6423.7q0-465.6,0-931.2c0-83-1.1-166,1.15-249,2.57-94.57,35.64-176.74,109.81-238.8,51.39-43,111.12-64.28,178.45-65.7,39.5-.83,77.78,4.48,115,16.76,100.18,33,160,104.13,185.51,204.05a487.21,487.21,0,0,1,15.11,115.49c1.51,202.5.84,405,.75,607.52,0,12.4-2,24.8-2.15,37.21-.14,12.06,2.86,23.18,14.78,29.45,12.15,6.4,22.82,2.31,32-5.8,79.56-70.27,176.21-103.5,276.87-128.31a810.12,810.12,0,0,1,197.17-23.13c169.29.64,329.29,35.77,469,138.2,107,78.47,185.78,177.8,220.85,307.2,11.62,42.91,19.44,87.8,21.68,132.15,12.43,247,15,494.31,12.91,741.63-.65,77.18-.6,154.37-2.37,231.53-2.31,100.36-3.09,200.9-10,301-10.81,156.56-117.42,238.67-245.53,251.61-51.34,5.19-101.26,2.1-150-12.82C2011.87,7849.84,1933,7754,1926.22,7641c-6-99.28-6.63-199-7.13-298.45-1-190.87,1-381.75-.68-572.61-.59-66.2-5.53-132.71-13.7-198.42-9.72-78.07-40.94-146.89-106.59-195.46-41-30.31-87.76-44.71-138.11-51.58-62.4-8.51-122.74-2.84-180.58,21.05-102.34,42.26-164,119.61-184.15,227.55-7.85,42-8.5,85.8-8.73,128.8-1.35,255.61-1.39,511.23-2.46,766.85-.21,48.9-1.21,97.94-5.13,146.65-4.72,58.55-21.84,114-54.52,163.5-46.5,70.5-113.5,106-196.43,116.36-48.65,6.06-95.93,2.38-142.88-9.91-102-26.7-184.22-107-200.14-232.12-7.61-59.73-5.9-120.83-6-181.31q-.72-524.1-.24-1048.22Z" transform="translate(-678.12 -4938.96)"></path><path fill="#F33E3E" d="M4879.79,6850.27q0-270.14.05-540.27c.06-63.06.75-126.13,1.24-189.19.37-46,7.68-90.82,23.85-134,30.5-81.44,87-136.16,170.14-162.08,67.71-21.11,136.65-25.65,206.37-10.18,61.88,13.72,108,48.75,140.08,103,6.74,11.42,13.26,23.11,21.32,33.57,18.31,23.78,36.42,27.36,63,12.82a222.8,222.8,0,0,0,28.94-19.36c95.93-74.05,204.91-117.65,323.39-139.79,66.44-12.42,133.43-17.47,200.75-14,177.75,9.17,338.46,63.27,472.32,184.52,100.28,90.83,158.73,204.64,183,337.05,13.85,75.61,13,152.12,13.27,228.27,1.18,341.07.62,682.16.39,1023.23,0,49-2.79,98-19.43,144.83-39.47,111.11-119.14,171.59-235.26,187.13a351.4,351.4,0,0,1-138.21-8.49c-111.11-29.56-176.51-103.22-202.07-213.88-10.17-44-9.84-88.92-10.08-133.71q-1.56-292.5-2.83-585c-.47-98.73.05-197.47-1.73-296.17-1.18-65.31-14.56-128.52-45-187.06-47.85-92.08-125.68-137.93-227.76-145.51-67.67-5-132.49,4.4-192.17,38.77-87.68,50.51-139.35,126.8-155.07,225.71-6.59,41.48-6.29,84.29-6.48,126.5q-1.83,408.27-2.49,816.55c-.13,44.82-1,89.57-11.54,133.56-9.33,39-23.05,76.21-45.45,109.71-47.29,70.72-114.54,107.87-198.17,118.95-52,6.89-103.05,3.27-152.52-12.72-104.09-33.66-163.89-108-190.09-212-13.15-52.21-10.8-105.47-10.89-158.47q-.53-331.12-.14-662.24Z" transform="translate(-678.12 -4938.96)"></path><path fill="#F33E3E" d="M2774.72,6649.53c0-108.73-.46-217.45.15-326.17.48-87.14,1.41-174.29,3.82-261.4a296.41,296.41,0,0,1,31.14-124.65c36.1-72.58,94.21-119.31,171.71-140.94,63.65-17.76,128.46-17.89,191.82.75,105.9,31.15,169.56,103.62,194.78,209.75,14.28,60.06,15.3,121.67,15.27,183.14q-.15,400.92-.3,801.83c0,61.64,5.62,122.61,25.62,181.51,38.23,112.58,123.58,177.48,250.92,185.85,46.53,3.06,93.06,1.95,138.27-11.65,109.57-32.94,174.83-107.55,200.23-217.24,7.23-31.23,10.44-64,10.68-96.14,2-273.06,2.7-546.14,4.45-819.21.33-51.39,2.4-102.85,6-154.11a327.61,327.61,0,0,1,33.74-124.1c46.89-93.91,125.6-140.7,227.6-150.82,39.63-3.93,79.64-2.77,118.9,6.58,102.91,24.52,167.77,89.55,200.51,188.36,14.46,43.66,20.27,88.82,20.28,134.77q.12,491.82.27,983.65c0,30.71.59,61.48-1.07,92.11-5.44,100.2-25.08,197.34-66.88,289.16-76.25,167.52-204.43,279-374.46,345-72.26,28.05-147.54,43.54-224,55.34-117.85,18.17-236.34,25-355.1,18.51-169.54-9.33-334.56-40.79-485.54-123-186.16-101.36-292.82-259.29-326.89-467.69-10.1-61.83-10.26-124-10.55-186.16-.71-157.68-.23-315.37-.23-473.05Z" transform="translate(-678.12 -4938.96)"></path><path fill="#F33E3E" d="M9289,6844.92q0-359.72.06-719.44c0-58.69,9-115.87,34.6-169.22,47.56-99.16,127.58-151.84,236.47-161.71,39.91-3.62,79.71-2.11,118.75,7.66,70.1,17.56,120.75,60.49,156.4,122.08,9.54,16.48,16.91,34.19,26.17,50.85,12.88,23.17,25.64,25.6,45.66,8.73,10.77-9.08,20.47-19.42,30.67-29.17,69.09-66,144.89-121.77,237-151.72,88.63-28.83,176.47-28.8,261.63,12.55,112.27,54.52,174.9,169.74,163.57,293.93-10.27,112.57-68.71,187.44-172.88,227.9-102.79,39.91-206.15,78.38-308.7,118.88a737.5,737.5,0,0,0-96.19,46.39c-69.67,40-107,102.42-116.71,181.25a791.73,791.73,0,0,0-5.88,94.24c-.6,246.46-.23,492.92-.92,739.38-.14,51.32.54,103-13.46,153.22-30.56,109.58-95.67,187.26-208.64,216-90.31,23-176.92,7.83-255.58-41.84-69.25-43.72-106.44-110.69-121.85-189.29-7-35.55-10-72.4-10.12-108.67-.87-234-.44-468-.44-702Z" transform="translate(-678.12 -4938.96)"></path><path fill="#F33E3E" d="M11331.28,6003.53c17-14.27,30.79-26,44.72-37.52,35.79-29.66,70.6-60.62,107.71-88.54,60.43-45.48,127.63-77.39,202.85-89.95,176.94-29.54,328.55,75.3,359.54,233.16,19.45,99.12-1,188-74.12,261.16-28.65,28.68-63.33,48.34-102,60-112.22,33.81-218.64,82.67-327.39,125.45-20.75,8.17-40.49,19.14-60,30-77.22,42.89-118.79,109.83-126.23,196.62-4.74,55.27-5.65,111-5.82,166.51-.73,229.05-.17,458.11-1,687.17-.17,51.44-4.25,102.8-21.67,152-39.76,112.43-118.23,176.67-237.13,192-51.26,6.6-101.38,2.44-149.83-14.2-110.37-37.9-171-118.27-191.43-230.79-10.88-59.9-9.06-120.69-9.08-181.23q-.26-610,.08-1220,.06-79.62,3.94-159.2a368.91,368.91,0,0,1,10.8-73.66c30.26-117.66,106.21-188.28,225-212.49,37.42-7.62,75.15-11.2,113.8-6.6,61.52,7.31,113.06,33.17,153,79.64,20.92,24.37,37.79,52.32,55.51,79.29C11312.4,5967.5,11320.33,5983.91,11331.28,6003.53Z" transform="translate(-678.12 -4938.96)"></path><path fill="#F33E3E" d="M7947.05,6552.49c32.59-4.88,60.79-1.35,88.49,7.45,40.77,13,73.34,37.94,101.2,69.72,48.79,55.63,74.21,121.48,81.69,194.05,7.9,76.68-3.51,150.64-39.86,219.54-24.47,46.39-57.4,85.61-103.65,111.58-74.6,41.9-149.21,40.2-221.56-5.26-57.21-35.94-92.19-89.83-114.95-152.07-25.58-70-25.92-141.22-8.3-213,1.14-4.63,3.1-9.06,5.2-15.09,14.57,7.61,18.83,20.34,20.5,33.16,4.29,33,21.49,58.83,43.08,82.39,54.41,59.35,144.17,58.55,194.49-4.07,54.51-67.82,68.34-143.26,27.26-222.75-15.45-29.9-37.69-56.32-57-84.22C7959.13,6567.41,7954,6561.35,7947.05,6552.49Z" transform="translate(-678.12 -4938.96)"></path></svg>