<svg viewBox="0 0 1046 234" fill="none" xmlns="http://www.w3.org/2000/svg">
<g clip-path="url(#clip0_15_433)">
<path d="M116.7 233.4C181.152 233.4 233.4 181.152 233.4 116.7C233.4 52.2484 181.152 0 116.7 0C52.2484 0 0 52.2484 0 116.7C0 181.152 52.2484 233.4 116.7 233.4Z" fill="url(#paint0_radial_15_433)"/>
<path d="M81.8 52.1C76.9 50.4 65.8 48 47.9 10.6C46.3 6.69997 43.6 1.29997 53.8 3.79997C64 6.29997 85.4 9.79997 100.6 38C95.7 45.3 81.8 52.1 81.8 52.1Z" fill="#F6A723"/>
<path d="M78.4 50.6C73.1 45.3 68.2 40 65.9 34.1C63.6 28.1 61.8 21.9 72.9 24.4C84 26.9 92.7 29.8 95.2 32.8C97.8 35.9 97.9 43.7 97.6 44.3C97.3 44.9 78.4 50.6 78.4 50.6Z" fill="#F8B242"/>
<path d="M150.1 35.6C157.7 34.4 170.1 32.1 181.7 33C185 33.1 191.3 32.6 184.1 37.2C176.9 41.8 165.8 49.6 158.8 50.2C151.7 50.7 150.1 35.6 150.1 35.6Z" fill="#F6A723"/>
<path d="M151.7 37.2C157.9 36.2 167.9 34.4 177.4 35.1C180.1 35.2 185.2 34.8 179.3 38.5C173.5 42.2 164.5 48.6 158.8 49C153 49.4 151.7 37.2 151.7 37.2Z" fill="#F8B242"/>
<path d="M120.6 56.3C122.3 56.4 124 56.6 125.7 56.8C113.3 55.4 101.7 54.9 99.6999 55.5C94.9999 56.8 77.6999 60.1 77.6999 60.1C77.6999 60.1 75.4999 70.3 72.4999 83.8C72.1999 85 71.3999 87.6 70.0999 90.4C67.7999 95.4 64.5999 98.4 60.2999 99.6L62.0999 106C64.1999 105.4 66.1999 104.5 67.9999 103.2C67.0999 107.2 64.2999 115.9 56.3999 118L58.1999 124.4C60.3999 123.8 62.4999 122.8 64.2999 121.5C64.1999 122.1 64.0999 122.6 63.8999 123.2C62.3999 127.5 59.2999 133.1 53.1999 134.8L54.9999 141.2C57.0999 140.6 58.9999 139.7 60.7999 138.6C60.2999 141 59.8999 143.2 59.4999 145C57.2999 148.9 54.2999 151.4 50.5999 152.4L52.3999 158.8C54.2999 158.3 56.0999 157.5 57.6999 156.5C57.4999 157.8 57.3999 159.2 57.1999 160.6C55.5999 164.8 52.5999 169.9 46.6999 171.5L48.4999 177.9C50.7999 177.3 52.8999 176.2 54.7999 174.9C53.5999 179.3 50.5999 186.3 43.4999 188.3L45.2999 194.7C47.7999 194 50.1999 192.8 52.1999 191.2C51.5999 194.5 49.1999 203.3 41.8999 206.3C43.7999 207.8 45.6999 209.3 47.5999 210.8C49.1999 209.8 50.6999 208.5 51.9999 207C51.9999 207.5 51.8999 208 51.8999 208.5C51.2999 209.7 50.4999 211 49.5999 212.2C68.4999 225.4 91.3999 233.2 116.2 233.3C94.7999 176.2 110.4 94.3 120.6 56.3Z" fill="#F6A723"/>
<path d="M162.5 210.8C162.4 209.5 162.4 208.3 162.3 207C163.8 207.8 165.5 208.4 167.2 208.7L168.5 202.4C165.8 201.9 163.6 200.5 161.9 198.8C161.8 197.3 161.7 195.9 161.7 194.5C162.8 195.1 164 195.6 165.2 195.9L167 189.7C164.8 189 162.9 187.8 161.2 186.1C160.6 175 160.2 165.6 160.1 160.2C160.1 159.6 160.1 158.9 160.1 158.3C159.7 137.3 160.5 120.3 160.3 114.5C160.4 108.3 159.5 74.6 159 66.5C158.7 61.6 141.3 58.4 124.9 56.8C123.2 56.6 121.4 56.5 119.8 56.3C109.6 94.3 93.9999 176.2 115.5 233.4C115.6 233.4 115.7 233.4 115.9 233.4C132.8 233.4 149 229.8 163.5 223.3C163.4 222.2 163.4 221 163.3 219.9C164.5 220.6 165.7 221.2 167 221.7C168 221.2 169 220.7 170 220.2L170.8 216.1C167.1 215.3 164.5 213.2 162.5 210.8Z" fill="#F8B242"/>
<path d="M166.9 126.5C166.9 126.5 138.8 107.4 114.9 121.4C110.7 124.1 86.7 139.1 104.7 165.9C112.9 175.9 123.4 191 146.8 187.7C161.2 185.3 168.6 182 171.3 180.2C177.5 176 182.9 158.8 181.3 149C179.6 139 174.4 131.2 166.9 126.5Z" fill="#FDD17A"/>
<path d="M175.4 168.9C175.3 168.4 174.8 168 174.3 168.1C169.3 168.8 164.4 169.3 159.7 169.5C159.7 169.3 159.7 169.1 159.7 169C160.2 164.3 160.6 159.6 161 154.9C161.1 154.1 160.8 153.2 162.3 153.1C166.6 152.8 171.2 148.6 172.2 144.2C172.6 142.6 172.6 141.1 171.3 139.9C170.1 138.8 168.6 139 167.2 139.4C164.3 140.4 162.6 142.8 160.7 145.3C160.4 144.7 160.2 144.4 159.9 144C157.9 141.1 155.6 138.7 151.9 138.2C149.3 137.9 148 139.3 148.2 141.9C148.4 144.1 149.3 145.9 150.7 147.6C152.8 149.9 154.9 152.2 158.1 152.7C159.6 152.9 159.6 153.5 159.6 154.7C159.4 159.4 159 164 158.5 168.6C158.5 168.8 158.4 169.1 158.4 169.3C140 169.8 124.7 165.9 114.6 157.8L114.4 157.7C114 157.4 113.4 157.4 113 157.9C112.7 158.3 112.7 158.9 113.2 159.3L113.4 159.4C123.3 167.3 137.8 171.4 155.3 171.4C161.4 171.4 167.8 170.9 174.5 169.9C175.1 170 175.4 169.5 175.4 168.9Z" fill="black"/>
<path d="M121.9 81.4C121.9 81.4 115.1 79.8 102.8 84.5C97.7999 86.1 95.8999 90.9 103.8 89.4C110 88.3 112.6 87.5 117.2 88.1C120.7 88.5 122.2 90.8 125.4 90.3C127.3 90.1 133.9 84.1 121.9 81.4Z" fill="black"/>
<path d="M150.2 80.1C150.2 80.1 142.8 77.2 140.9 79.1C138.9 81.1 138.6 87.3 141.7 86.6C147 85.3 151.6 86.4 156.7 90C159.8 92.2 159.7 94.8 160.9 94C162.1 93.2 161.4 90.6 160.4 88.7C159.4 86.7 154.8 82 150.2 80.1Z" fill="black"/>
<path d="M109.9 114.5C116.086 114.5 121.1 109.486 121.1 103.3C121.1 97.1144 116.086 92.1 109.9 92.1C103.714 92.1 98.7 97.1144 98.7 103.3C98.7 109.486 103.714 114.5 109.9 114.5Z" class="leaseloco"/>
<path d="M110.1 108.3C113.745 108.3 116.7 105.345 116.7 101.7C116.7 98.0549 113.745 95.1 110.1 95.1C106.455 95.1 103.5 98.0549 103.5 101.7C103.5 105.345 106.455 108.3 110.1 108.3Z" fill="#F15A24"/>
<path d="M110.1 106.8C112.917 106.8 115.2 104.517 115.2 101.7C115.2 98.8833 112.917 96.6 110.1 96.6C107.283 96.6 105 98.8833 105 101.7C105 104.517 107.283 106.8 110.1 106.8Z" fill="black"/>
<path d="M99 108.4C99 108.4 103.4 118.9 116.7 113.3C118.3 112.6 120.5 110.4 117.7 110.5C114.9 110.6 105.9 109.6 100.2 106.4C98.9 105.7 96.6 103.2 99 108.4Z" fill="#EA8D23"/>
<path d="M110.6 99.3C111.428 99.3 112.1 98.6284 112.1 97.8C112.1 96.9716 111.428 96.3 110.6 96.3C109.771 96.3 109.1 96.9716 109.1 97.8C109.1 98.6284 109.771 99.3 110.6 99.3Z" class="leaseloco"/>
<path d="M118.3 95.3C118.3 95.3 110.4 86.1 99.7 96.9C98.7 98 97.1 101.4 99.7 100.2C102.4 99 110.9 96.1 117.9 97.8C119.7 98.1 122.1 99.2 118.3 95.3Z" fill="#EA8D23"/>
<path d="M155.9 102.9C155.9 109.4 152.5 114.7 148.3 114.7C144.1 114.7 140.7 109.4 140.7 102.9C140.7 96.4 144.1 91.5 148.3 91.5C152.5 91.5 155.9 96.4 155.9 102.9Z" class="leaseloco"/>
<mask id="mask0_15_433" style="mask-type:luminance" maskUnits="userSpaceOnUse" x="140" y="91" width="16" height="24">
<path d="M155.9 102.9C155.9 109.4 152.5 114.7 148.3 114.7C144.1 114.7 140.7 109.4 140.7 102.9C140.7 96.4 144.1 91.5 148.3 91.5C152.5 91.5 155.9 96.4 155.9 102.9Z" class="leaseloco"/>
</mask>
<g mask="url(#mask0_15_433)">
<path d="M143.5 109.5C147.255 109.5 150.3 106.456 150.3 102.7C150.3 98.9445 147.255 95.9 143.5 95.9C139.744 95.9 136.7 98.9445 136.7 102.7C136.7 106.456 139.744 109.5 143.5 109.5Z" fill="#F15A24"/>
<path d="M143.5 107.9C146.372 107.9 148.7 105.572 148.7 102.7C148.7 99.8281 146.372 97.5 143.5 97.5C140.628 97.5 138.3 99.8281 138.3 102.7C138.3 105.572 140.628 107.9 143.5 107.9Z" fill="black"/>
</g>
<path d="M143.3 100.8C144.128 100.8 144.8 100.128 144.8 99.3C144.8 98.4716 144.128 97.8 143.3 97.8C142.471 97.8 141.8 98.4716 141.8 99.3C141.8 100.128 142.471 100.8 143.3 100.8Z" class="leaseloco"/>
<path d="M150.1 91.3C145.2 90.2 140.9 94 140.4 98.9C140.4 99 140.5 99.1 140.6 99.1C144.7 98.8 153.4 98.8 156.1 100.7C156.3 100.8 156.5 100.7 156.4 100.5C155.9 96.7 155.1 92.7 150.1 91.3Z" fill="#EA8D23"/>
<path d="M143.3 111.9C145.1 112.3 149.3 113 153.2 112.2C153.5 112.1 153.7 112.5 153.5 112.8C152.3 114.4 150.9 115.6 148.9 115.7C145.7 115.7 144 114 142.9 112.5C142.7 112.2 143 111.8 143.3 111.9Z" fill="#EA8D23"/>
<path d="M175.7 66.5C175.7 66.2 175.7 65.8 175.7 65.5C175.6 61.6 173.4 58.3 170.3 56.5C169.5 55.9 168.5 55.5 167.6 55.2C167.2 55.1 166.7 55 166.3 54.9C166 54.9 165.7 54.8 165.4 54.8H165.3C164.2 54.8 163.1 55 162.1 55.3C162.3 55.2 162.6 55 162.8 54.9C163.5 54.6 164.3 54.3 165.1 54.2H165.2C165.6 54.1 166 54.1 166.4 54.1C166.9 54.1 167.3 54.1 167.8 54.1C169 54.2 170 54.5 171 55C171.1 55 171.2 55 171.3 55C174.1 54.9 176.4 52.5 176.3 49.7C176.2 47.7 175 46 173.3 45.2C173.4 44.2 173.4 43.1 173.4 42.1C173.3 38 172.4 34.1 170.8 30.6C170.2 29.2 169.5 27.9 168.7 26.6C168.8 26.6 169 26.5 169.1 26.4C169 26.5 168.9 26.5 168.7 26.6C163.6 18.7 157.2 15.2 150.8 13.6C151.2 13.7 151.7 13.7 152.1 13.8C159.8 15.3 166.2 19.4 170.7 25C171.2 24.3 171.5 23.4 171.4 22.5C171.3 20.2 169.4 18.3 167 18.4C166.9 18.4 166.9 18.4 166.8 18.4C167.5 17.3 167.9 16.1 167.9 14.7C167.8 12.4 166.5 10.3 164.5 9.29998C165.2 8.49998 165.6 7.49998 165.6 6.39998C165.5 4.09998 163.6 2.19998 161.2 2.29998C159.6 2.39998 158.2 3.29998 157.6 4.59998C155.6 1.79998 152.3 0.0999826 148.6 0.199983C142.6 0.399983 138 5.39998 138.1 11.3C138.1 11.4 138.1 11.6 138.1 11.7C136.7 11.7 135.3 11.9 134 12.1V12C134 11.7 134 11.4 133.9 11.2C134.5 10.5 134.9 9.69998 134.8 8.69998C134.7 6.69998 133.1 5.19998 131.1 5.29998C129.3 5.39998 127.9 6.69998 127.7 8.49998C126.4 9.19998 125.6 10.5 125.5 11.9C125.4 12.1 125.4 12.3 125.4 12.6C124.1 12 122.6 11.6 121 11.7C118.1 11.8 115.5 13.2 113.8 15.4C112.8 16.5 112.1 17.9 111.8 19.5C111.8 19.6 111.8 19.7 111.8 19.9C111.8 20 111.8 20.1 111.8 20.1C111.8 23 112.3 25.9 113.4 28.8C113 28.2 112.7 27.6 112.4 26.9C111.4 24.9 110.8 22.8 110.3 20.8C110.3 20.7 110.3 20.6 110.2 20.5C110.2 20.3 110.1 19.9 110.1 19.7C109.2 19.8 108.3 19.9 107.5 20.1C106.2 18.4 104.2 17.4 102 17.5C100.3 17.6 98.7001 18.3 97.5001 19.4C96.9001 19.9 96.4001 20.5 96.0001 21.2C95.1001 20.7 94.0001 20.5 92.9001 20.5C89.5001 20.6 86.8001 23.2 86.4001 26.4C86.3001 26.9 86.2001 27.5 86.2001 28.1C86.2001 28.6 86.3001 29.1 86.4001 29.5C86.7001 30.4 87.2001 31.1 87.8001 31.8C88.1001 32.1 88.4001 32.4 88.7001 32.7C88.9001 32.9 89.1001 33 89.3001 33.2C89.3001 33.2 89.3001 33.2 89.4001 33.2C90.2001 33.8 91.1001 34.2 92.1001 34.4C91.9001 34.4 91.6001 34.4 91.4001 34.3C90.7001 34.2 89.9001 34 89.3001 33.7H89.2001C88.9001 33.6 88.5001 33.4 88.2001 33.2C87.8001 33 87.5001 32.7 87.2001 32.5C86.2001 31.7 85.4001 30.8 84.8001 29.7C82.4001 30.4 80.6001 32.4 80.1001 34.8C79.9001 35.4 79.8001 36.1 79.9001 36.8C79.9001 38.3 80.5001 39.7 81.5001 40.8C76.5001 42.4 72.7001 46.7 71.8001 51.9C71.6001 51.9 71.4001 51.9 71.1001 51.8C70.8001 51.8 70.5001 51.7 70.2001 51.8C68.3001 51.9 66.6001 52.9 65.6001 54.3C64.6001 55.5 64.0001 57.1 64.1001 58.8C64.2001 61.2 65.5001 63.3 67.4001 64.4C66.8001 65.4 66.5001 66.6 66.6001 67.9C66.6001 68 66.6001 68.1 66.6001 68.2C66.5001 68.3 66.3001 68.3 66.2001 68.4C65.8001 68.6 65.5001 68.8 65.2001 69.1C64.4001 69.9 63.8001 71.1 63.9001 72.3C64.0001 74.6 65.9001 76.5 68.3001 76.4C69.9001 76.4 71.2001 75.5 71.9001 74.2C72.5001 74.3 73.0001 74.4 73.6001 74.4C75.7001 74.3 77.5001 73.3 78.7001 71.8C77.8001 70.7 77.1001 69.3 76.7001 67.9C76.6001 67.4 76.5001 67 76.4001 66.5C76.3001 66.1 76.3001 65.7 76.3001 65.2V65.1C76.3001 64.3 76.4001 63.4 76.6001 62.5C76.7001 62.2 76.8001 61.9 76.8001 61.7C76.6001 62.9 76.6001 64.1 76.9001 65.2V65.3C77.0001 65.6 77.0001 65.9 77.1001 66.2C77.2001 66.7 77.4001 67.1 77.6001 67.5C78.1001 68.5 78.7001 69.3 79.4001 70.1C81.7001 71.4 84.5001 72.1 87.3001 72C91.1001 71.9 94.6001 70.4 97.2001 68C94.4001 64.5 92.8001 60 93.0001 55.1C93.0001 54.8 93.0001 54.6 93.1001 54.3C93.1001 59.2 95.1001 63.6 98.4001 66.8C103.1 70.5 109.1 72.6 115.5 72.3C118.2 72.2 120.8 71.7 123.2 70.9C118.9 66.8 116.3 61 116.4 54.6C116.4 54.3 116.4 54 116.4 53.7C116.6 60.5 120.2 66.5 125.5 70C130.5 73 136.4 74.6 142.6 74.4C147.3 74.3 151.6 73.1 155.6 71.2C157.6 74.4 161.1 76.5 165.2 76.4C167.7 76.3 170.1 75.4 171.9 73.8C172.4 74 172.9 74.1 173.4 74C175.7 73.9 177.6 72 177.5 69.6C177.5 68.5 176.7 67.2 175.7 66.5Z" fill="#F15A24"/>
<path d="M77.1 66.1999C77 65.8999 76.9 65.6 76.9 65.3V65.1999C76.7 64.0999 76.6 62.9 76.8 61.7C76.7 62 76.6 62.2 76.6 62.5C76.4 63.4 76.3 64.1999 76.3 65.0999V65.1999C76.3 65.5999 76.3 66.1 76.4 66.5C76.5 67 76.6 67.5 76.7 67.9C77.1 69.3 77.8 70.6 78.7 71.8C79.1 71.3 79.4 70.7999 79.6 70.1999C78.8 69.3999 78.2 68.5999 77.8 67.5999C77.4 67.1999 77.2 66.6999 77.1 66.1999Z" fill="#C54409"/>
<path d="M93.1001 55.2C92.8001 60 94.5001 64.6 97.3001 68.1C97.7001 67.7 98.1001 67.4 98.4001 67C95.1001 63.8 93.1001 59.4 93.1001 54.5C93.2001 54.7 93.1001 54.9 93.1001 55.2Z" fill="#C54409"/>
<path d="M116.5 53.9C116.5 54.2 116.5 54.5 116.5 54.8C116.4 61.2 119.1 67 123.3 71.1C124.1 70.8 124.9 70.5 125.6 70.2C120.3 66.6 116.7 60.7 116.5 53.9Z" fill="#C54409"/>
<path d="M110.2 20.6C110.6 22.7 111.3 24.7 112.3 26.7C112.6 27.4 113 28 113.3 28.6C112.2 25.8 111.7 22.8 111.7 19.9C111.7 19.8 111.7 19.7 111.7 19.7C111.7 19.6 111.7 19.5 111.7 19.3C111.1 19.3 110.6 19.4 110.1 19.4C110.1 19.6 110.2 20 110.2 20.2C110.1 20.5 110.1 20.6 110.2 20.6Z" fill="#C54409"/>
<path d="M87.1 32.4C87.4 32.7 87.8 32.9 88.1 33.1C88.4 33.3 88.7 33.5 89.1 33.6H89.2C89.9 33.9 90.6 34.1 91.3 34.2C91.5 34.2 91.8 34.3 92 34.3C91 34.1 90.1 33.6 89.3 33.1C89.3 33.1 89.3 33.1 89.2 33.1C89 32.9 88.8 32.8 88.6 32.6C88.3 32.3 88 32 87.7 31.7C87.1 31 86.6 30.2 86.3 29.4C85.7 29.4 85.2 29.5 84.7 29.7C85.3 30.7 86.1 31.6 87.1 32.4Z" fill="#C54409"/>
<path d="M166.3 54.1C165.9 54.1 165.5 54.2 165.1 54.2H165C164.2 54.3 163.5 54.6 162.7 54.9C162.5 55 162.2 55.1 162 55.3C163.1 54.9 164.1 54.7 165.2 54.8H165.3C165.6 54.8 165.9 54.8 166.2 54.9C166.6 55 167.1 55 167.5 55.2C168.5 55.5 169.4 55.9 170.2 56.5C170.4 56.1 170.6 55.6 170.8 55.1C169.8 54.6 168.8 54.3 167.6 54.2C167.2 54.1 166.7 54.1 166.3 54.1Z" fill="#C54409"/>
<path d="M151.9 13.8C151.5 13.7 151 13.6 150.6 13.6C157.1 15.3 163.4 18.7 168.5 26.6C168.6 26.6 168.8 26.5 168.9 26.4C169.6 26.1 170.1 25.6 170.5 25C166 19.4 159.5 15.3 151.9 13.8Z" fill="#C54409"/>
<path d="M295.3 174.9C290.8 174.9 287.5 173.7 285.4 171.3C283.3 168.9 282.6 165.4 283.2 160.9L297.9 68.6C298.6 64.6 300.1 61.7 302.4 59.7C304.7 57.8 307.9 56.8 311.8 56.8C316.1 56.8 319.3 58 321.3 60.4C323.3 62.8 324 66.3 323.4 70.7L310.3 153.2H352.4C356.2 153.2 359 154 361 155.5C363 157 364 159.2 364 162C364 166.1 362.8 169.3 360.5 171.5C358.2 173.8 355 174.9 351.1 174.9H295.3Z" class="leaseloco"/>
<path d="M446.1 118.3C445.2 113.3 443.3 108.9 440.5 104.9C437.7 100.9 433.9 97.8 429.2 95.5C424.5 93.2 418.7 92 411.7 92C403 92 395.2 94 388.3 98.1C381.4 102.2 375.9 107.8 371.9 114.8C367.9 121.9 365.9 130 365.9 139.3C365.9 146.7 367.6 153.2 371.1 158.9C374.6 164.5 379.5 168.9 385.8 172C392.1 175.1 399.5 176.6 408 176.6C412.2 176.6 416.7 176.1 421.6 175.1C426.5 174.1 430.8 172.6 434.5 170.5C436.8 169.3 438.5 167.8 439.6 166C440.6 164.2 441.1 162.4 441.1 160.5C441 158.6 440.5 157 439.5 155.5C438.5 154.1 437.1 153.2 435.3 152.8C433.5 152.4 431.3 152.8 428.9 154C426.2 155.3 423.3 156.3 420 157C416.7 157.7 413.5 158 410.6 158C403 158 397.3 155.9 393.6 151.8C390.8 148.7 389.4 144.6 389.4 139.6H440.2C442 139.6 443.4 139.2 444.5 138.5C445.6 137.8 446.3 136.2 446.7 133.6C447.2 128.4 447.1 123.2 446.1 118.3ZM400.8 111.4C403.7 109.5 407.2 108.5 411.4 108.5C415.6 108.5 418.9 109.4 421.3 111.2C423.7 113 425.4 115.5 426.4 118.5C427.1 120.9 427.4 123.7 427.2 126.7H391.1C391.7 123.9 392.7 121.3 394 118.8C395.7 115.8 397.9 113.3 400.8 111.4Z" class="leaseloco"/>
<path d="M541.1 96.1C539.3 93.6 536.5 92.3 532.6 92.3C528.6 92.3 525.4 93.4 523 95.4C520.6 97.5 519 100.6 518.4 104.7L518.1 106.5C516.2 102.1 513.3 98.7 509.2 96.2C504.5 93.3 499.1 91.9 493 91.9C484.7 91.9 477.5 94.1 471.3 98.4C465.1 102.7 460.4 108.6 457 116.1C453.7 123.6 452 132.1 452 141.5C452 148.7 453.2 154.9 455.7 160.1C458.2 165.3 461.7 169.4 466.3 172.3C470.9 175.2 476.2 176.6 482.3 176.6C488.4 176.6 493.8 175.2 498.6 172.4C502.8 170 506.3 166.7 509.2 162.7C508.6 166.8 509.1 170 510.7 172.4C512.4 175 515.2 176.3 519.1 176.3C523.3 176.3 526.6 175.3 528.9 173.2C531.2 171.1 532.8 168.1 533.5 164L542.6 106.7C543.5 102.1 542.9 98.6 541.1 96.1ZM511 143.5C509.3 148 507 151.5 504 154.1C501 156.7 497.2 158 492.6 158C487.8 158 484.1 156.5 481.4 153.4C478.7 150.3 477.3 145.9 477.3 140.1C477.3 134.4 478.1 129.3 479.8 124.9C481.5 120.5 483.9 117 487 114.5C490.1 112 493.9 110.7 498.2 110.7C503.1 110.7 506.8 112.2 509.5 115.3C512.2 118.3 513.5 122.8 513.5 128.6C513.5 134.1 512.6 139.1 511 143.5Z" class="leaseloco"/>
<path d="M577.9 176.6C572.7 176.6 567.7 176.1 562.9 175.2C558.1 174.3 553.9 173 550.2 171.5C547.7 170.5 545.9 169.1 544.8 167.3C543.7 165.5 543.3 163.6 543.5 161.7C543.7 159.8 544.3 158.2 545.3 156.7C546.3 155.3 547.8 154.3 549.7 153.8C551.6 153.3 553.7 153.6 556 154.7C559.5 156.2 563.2 157.4 566.9 158.3C570.7 159.1 574.3 159.5 577.8 159.5C582.5 159.5 586.1 158.7 588.5 157C590.9 155.3 592.1 153.2 592.1 150.5C592.1 148.6 591.4 147.1 590.1 146C588.8 144.9 586.8 144.1 584.1 143.7L569 140.7C562.6 139.6 557.6 137.2 554.2 133.6C550.7 130 549 125.3 549 119.7C549 114.7 550.4 110.1 553.3 105.9C556.2 101.7 560.5 98.3 566.2 95.7C571.9 93.1 579 91.8 587.2 91.8C591 91.8 595 92.2 599.3 93.1C603.6 94 607.4 95.3 610.7 97.1C613.1 98.2 614.8 99.6 615.8 101.3C616.8 103 617.2 104.8 617 106.5C616.8 108.3 616.2 109.8 615 111.1C613.8 112.4 612.3 113.3 610.4 113.8C608.5 114.3 606.4 114 604.2 112.9C601.4 111.6 598.5 110.6 595.3 109.9C592.1 109.2 589 108.9 586 108.9C581 108.9 577.3 109.7 574.8 111.4C572.3 113.1 571.1 115.3 571.1 118.2C571.1 119.7 571.6 121.1 572.7 122.3C573.7 123.5 575.4 124.3 577.8 124.7L592.9 127.5C600.1 128.8 605.4 131.3 609 135C612.5 138.6 614.3 143.2 614.3 148.6C614.3 157.7 611 164.6 604.4 169.3C597.8 174.2 588.9 176.6 577.9 176.6Z" class="leaseloco"/>
<path d="M700.8 118.3C699.9 113.3 698 108.9 695.2 104.9C692.4 100.9 688.6 97.8 683.9 95.5C679.2 93.2 673.4 92 666.4 92C657.7 92 649.9 94 643 98.1C636.1 102.2 630.6 107.8 626.6 114.8C622.6 121.9 620.6 130 620.6 139.3C620.6 146.7 622.3 153.2 625.8 158.9C629.3 164.5 634.2 168.9 640.5 172C646.8 175.1 654.2 176.6 662.7 176.6C666.9 176.6 671.4 176.1 676.3 175.1C681.2 174.1 685.5 172.6 689.2 170.5C691.5 169.3 693.2 167.8 694.3 166C695.3 164.2 695.8 162.4 695.8 160.5C695.7 158.6 695.2 157 694.2 155.5C693.2 154.1 691.8 153.2 690 152.8C688.2 152.4 686 152.8 683.6 154C680.9 155.3 678 156.3 674.7 157C671.4 157.7 668.2 158 665.3 158C657.7 158 652 155.9 648.3 151.8C645.5 148.7 644.1 144.6 644.1 139.6H694.9C696.7 139.6 698.1 139.2 699.2 138.5C700.3 137.8 701 136.2 701.4 133.6C701.9 128.4 701.8 123.2 700.8 118.3ZM655.5 111.4C658.4 109.5 661.9 108.5 666.1 108.5C670.3 108.5 673.6 109.4 676 111.2C678.4 113 680.1 115.5 681.1 118.5C681.9 120.9 682.1 123.7 681.9 126.7H645.8C646.4 123.9 647.4 121.3 648.7 118.8C650.4 115.8 652.6 113.3 655.5 111.4Z" class="leaseloco"/>
<path d="M719.7 174.9C715.2 174.9 711.9 173.7 709.8 171.3C707.7 168.9 707 165.4 707.6 160.9L722.3 68.6C723 64.6 724.5 61.7 726.8 59.7C729.1 57.8 732.3 56.8 736.2 56.8C740.5 56.8 743.7 58 745.7 60.4C747.7 62.8 748.4 66.3 747.8 70.7L734.7 153.2H776.8C780.6 153.2 783.4 154 785.4 155.5C787.4 157 788.4 159.2 788.4 162C788.4 166.1 787.2 169.3 784.9 171.5C782.6 173.8 779.4 174.9 775.5 174.9H719.7Z" class="leaseloco"/>
<path d="M831.6 176.6C823.2 176.6 816 175.1 810.1 172C804.1 169 799.6 164.6 796.4 159C793.3 153.4 791.7 146.8 791.7 139.3C791.7 131.8 792.9 125.1 795.4 119.2C797.9 113.3 801.3 108.3 805.8 104.2C810.2 100.1 815.2 97 820.7 95C826.2 93 832.1 91.9 838.3 91.9C846.7 91.9 853.9 93.4 859.8 96.5C865.8 99.5 870.3 103.9 873.6 109.5C876.8 115.1 878.4 121.7 878.4 129.2C878.4 136.8 877.1 143.6 874.6 149.4C872.1 155.3 868.6 160.2 864.2 164.3C859.8 168.4 854.9 171.5 849.4 173.5C843.8 175.6 837.9 176.6 831.6 176.6ZM832.3 158C836.6 158 840.3 156.7 843.4 154.1C846.5 151.5 848.9 148 850.6 143.5C852.3 139 853.2 134 853.2 128.5C853.2 122.6 851.8 118.2 849.1 115.2C846.3 112.2 842.6 110.6 837.8 110.6C833.4 110.6 829.6 111.9 826.5 114.4C823.4 116.9 821 120.4 819.4 124.8C817.7 129.2 816.9 134.3 816.9 140C816.9 145.7 818.3 150.2 821 153.3C823.7 156.5 827.5 158 832.3 158Z" class="leaseloco"/>
<path d="M924.6 176.6C915.8 176.6 908.3 175.1 902.3 172C896.3 168.9 891.7 164.5 888.7 158.8C885.7 153.1 884.1 146.5 884.1 139C884.1 133 885 127.2 886.9 121.6C888.8 116 891.7 110.9 895.6 106.4C899.5 101.9 904.5 98.4 910.5 95.8C916.5 93.2 923.6 91.9 931.6 91.9C935.5 91.9 939.1 92.3 942.5 93C945.9 93.7 949.1 94.7 951.9 96.1C954.6 97.2 956.4 98.6 957.5 100.4C958.6 102.2 959.1 104 958.9 106C958.7 108 958.1 109.8 957.1 111.4C956 113 954.6 114.1 952.9 114.8C951.1 115.5 949.2 115.3 947.1 114.3C944.7 113.1 942.3 112.2 940.1 111.7C937.9 111.2 935.6 111 933.3 111C928.9 111 925.2 111.8 922.1 113.3C919.1 114.8 916.6 117 914.8 119.8C913 122.6 911.6 125.6 910.7 128.8C909.8 132.1 909.4 135.4 909.4 138.8C909.4 144.4 910.9 149 913.8 152.5C916.7 156 921.5 157.7 928.1 157.7C929.9 157.7 931.9 157.5 934.1 157C936.4 156.5 938.7 155.6 941 154.4C942.9 153.6 944.6 153.5 946.2 154.2C947.8 154.8 949.1 155.8 950.2 157.3C951.2 158.7 951.8 160.4 951.9 162.3C952 164.2 951.5 166 950.5 167.8C949.5 169.6 947.8 171.1 945.4 172.3C942.6 173.7 939.3 174.8 935.4 175.6C931.7 176.2 928 176.6 924.6 176.6Z" class="leaseloco"/>
<path d="M998.6 176.6C990.2 176.6 983 175.1 977.1 172C971.1 169 966.6 164.6 963.4 159C960.3 153.4 958.7 146.8 958.7 139.3C958.7 131.8 959.9 125.1 962.4 119.2C964.9 113.3 968.3 108.3 972.8 104.2C977.2 100.1 982.2 97 987.7 95C993.2 93 999.1 91.9 1005.3 91.9C1013.7 91.9 1020.9 93.4 1026.8 96.5C1032.8 99.5 1037.3 103.9 1040.6 109.5C1043.8 115.1 1045.4 121.7 1045.4 129.2C1045.4 136.8 1044.1 143.6 1041.6 149.4C1039.1 155.3 1035.6 160.2 1031.2 164.3C1026.8 168.4 1021.9 171.5 1016.4 173.5C1010.8 175.6 1004.9 176.6 998.6 176.6ZM999.2 158C1003.5 158 1007.2 156.7 1010.3 154.1C1013.4 151.5 1015.8 148 1017.5 143.5C1019.2 139 1020.1 134 1020.1 128.5C1020.1 122.6 1018.7 118.2 1016 115.2C1013.2 112.2 1009.5 110.6 1004.7 110.6C1000.3 110.6 996.5 111.9 993.4 114.4C990.3 116.9 987.9 120.4 986.3 124.8C984.6 129.2 983.8 134.3 983.8 140C983.8 145.7 985.2 150.2 987.9 153.3C990.7 156.5 994.5 158 999.2 158Z" class="leaseloco"/>
</g>
<defs>
<radialGradient id="paint0_radial_15_433" cx="0" cy="0" r="1" gradientUnits="userSpaceOnUse" gradientTransform="translate(116.689 116.689) scale(116.689)">
<stop stop-color="#FFF"/>
<stop offset="1" stop-color="#FFEACA"/>
</radialGradient>
<clipPath id="clip0_15_433">
<rect width="1045.3" height="233.4" class="leaseloco"/>
</clipPath>
</defs>
<style>
.leaseloco {
    fill: #07081A;
}

.dark .leaseloco {
    fill: #fff;
}
</style>
</svg>
