<svg width="222" height="60" viewBox="0 0 222 60" fill="none" xmlns="http://www.w3.org/2000/svg">
    <def><style>.a4b2a390-5a5a-4c22-b122-e3008dcd8ac3 { fill: #fff; } </style></def>
<path d="M57.7998 9.63202V26H60.1518V13.256L65.2398 19.592H65.6718L70.7118 13.256V26H73.0638V9.63202H70.8798L65.4558 16.352L60.0078 9.63202H57.7998Z" class="a4b2a390-5a5a-4c22-b122-e3008dcd8ac3"></path>
<path d="M83.579 9.53602L76.547 26H78.947L81.011 21.176H87.971L90.155 26H92.555L85.235 9.53602H83.579ZM84.395 12.728L87.059 19.064H81.899L84.395 12.728Z" class="a4b2a390-5a5a-4c22-b122-e3008dcd8ac3"></path>
<path d="M103.444 9.41602C98.5722 9.41602 94.5882 13.04 94.5882 17.84C94.5882 21.68 97.3722 26.216 103.396 26.216C105.46 26.216 107.428 25.808 109.348 24.776V22.208C107.572 23.384 105.628 24.032 103.492 24.032C99.4122 24.032 97.0362 21.08 97.0362 17.864C97.0362 14.648 99.5082 11.6 103.516 11.6C105.508 11.6 107.428 12.248 109.18 13.232V10.76C107.212 9.87202 105.268 9.41602 103.444 9.41602Z" class="a4b2a390-5a5a-4c22-b122-e3008dcd8ac3"></path>
<path d="M113.91 9.63202V26H120.15C125.334 26 128.958 22.688 128.958 17.624C128.958 13.016 125.598 9.63202 120.126 9.63202H113.91ZM116.262 23.888V11.72H119.694C124.326 11.72 126.534 14.168 126.534 17.696C126.534 21.584 124.158 23.888 120.03 23.888H116.262Z" class="a4b2a390-5a5a-4c22-b122-e3008dcd8ac3"></path>
<path d="M141.56 9.41602C135.872 9.41602 132.8 13.592 132.8 17.864C132.8 22.352 136.256 26.216 141.44 26.216C147.128 26.216 150.392 22.16 150.392 17.792C150.392 13.136 146.768 9.41602 141.56 9.41602ZM141.632 11.624C145.832 11.624 147.968 14.984 147.968 17.768C147.968 21.944 144.968 24.008 141.488 24.008C138.128 24.008 135.224 21.488 135.224 17.864C135.224 14.384 137.576 11.624 141.632 11.624Z" class="a4b2a390-5a5a-4c22-b122-e3008dcd8ac3"></path>
<path d="M154.958 9.63202V26H157.214V13.4L168.086 26H170.126V9.63202H167.87V22.328L156.902 9.63202H154.958Z" class="a4b2a390-5a5a-4c22-b122-e3008dcd8ac3"></path>
<path d="M180.643 9.53602L173.611 26H176.011L178.075 21.176H185.035L187.219 26H189.619L182.299 9.53602H180.643ZM181.459 12.728L184.123 19.064H178.963L181.459 12.728Z" class="a4b2a390-5a5a-4c22-b122-e3008dcd8ac3"></path>
<path d="M193.099 9.63202V26H202.843V23.864H195.475V9.63202H193.099Z" class="a4b2a390-5a5a-4c22-b122-e3008dcd8ac3"></path>
<path d="M206.568 9.63202V26H212.808C217.992 26 221.616 22.688 221.616 17.624C221.616 13.016 218.256 9.63202 212.784 9.63202H206.568ZM208.92 23.888V11.72H212.352C216.984 11.72 219.192 14.168 219.192 17.696C219.192 21.584 216.816 23.888 212.688 23.888H208.92Z" class="a4b2a390-5a5a-4c22-b122-e3008dcd8ac3"></path>
<path d="M58.2002 37.0883V48.0003H59.7682V43.2483H65.8962V48.0003H67.4642V37.0883H65.8962V41.8083H59.7682V37.0883H58.2002Z" class="a4b2a390-5a5a-4c22-b122-e3008dcd8ac3"></path>
<path d="M76.8164 36.9443C73.0244 36.9443 70.9764 39.7283 70.9764 42.5763C70.9764 45.5683 73.2804 48.1443 76.7364 48.1443C80.5284 48.1443 82.7044 45.4403 82.7044 42.5283C82.7044 39.4243 80.2884 36.9443 76.8164 36.9443ZM76.8644 38.4163C79.6644 38.4163 81.0884 40.6563 81.0884 42.5123C81.0884 45.2963 79.0884 46.6723 76.7684 46.6723C74.5284 46.6723 72.5924 44.9923 72.5924 42.5763C72.5924 40.2563 74.1604 38.4163 76.8644 38.4163Z" class="a4b2a390-5a5a-4c22-b122-e3008dcd8ac3"></path>
<path d="M84.6128 37.0883V38.4643H88.3568V48.0003H89.9248V38.4643H93.7328V37.0883H84.6128Z" class="a4b2a390-5a5a-4c22-b122-e3008dcd8ac3"></path>
<path d="M96.7971 37.0883V48.0003H103.133V46.5923H98.3651V43.2003H102.829V41.8083H98.3651V38.4803H102.989V37.0883H96.7971Z" class="a4b2a390-5a5a-4c22-b122-e3008dcd8ac3"></path>
<path d="M106.741 37.0883V48.0003H113.237V46.5763H108.325V37.0883H106.741Z" class="a4b2a390-5a5a-4c22-b122-e3008dcd8ac3"></path>
<path d="M119.172 36.9443C117.3 36.9443 115.956 38.1123 115.956 39.6643C115.956 41.0083 116.564 41.8723 118.18 42.8163C120.34 44.0803 120.548 44.5763 120.548 45.3123C120.548 46.1603 119.86 46.7523 118.948 46.7523C117.812 46.7523 116.772 46.1603 116.004 45.1523V47.1363C116.868 47.7763 117.876 48.1443 118.948 48.1443C120.852 48.1443 122.116 46.8963 122.116 45.2963C122.116 43.8083 121.62 43.0403 119.316 41.7123C117.652 40.7523 117.524 40.2243 117.524 39.6163C117.524 38.8643 118.132 38.3523 119.124 38.3523C120.1 38.3523 120.948 38.7683 121.684 39.4883V37.7123C120.932 37.2163 120.068 36.9443 119.172 36.9443Z" class="a4b2a390-5a5a-4c22-b122-e3008dcd8ac3"></path>
<path d="M134.802 41.5203C134.178 40.9283 133.794 40.2403 133.794 39.6643C133.794 39.0723 134.354 38.6243 134.994 38.6243C135.682 38.6243 136.226 39.1203 136.226 39.7443C136.226 40.3363 135.81 40.9123 134.802 41.5203ZM130.914 45.6483C130.914 47.0723 132.242 48.1443 133.634 48.1443C135.074 48.1443 136.29 47.1843 137.122 46.5123L138.386 48.0003H140.386L138.178 45.4403C139.058 44.4323 139.618 43.4883 139.954 42.5763H138.386C138.05 43.2643 137.634 43.9043 137.218 44.3363L135.682 42.5763C137.218 41.5203 137.698 40.6563 137.698 39.6803C137.698 38.5923 136.866 37.2963 134.978 37.2963C132.93 37.2963 132.258 38.8003 132.258 39.8083C132.258 40.8003 132.866 41.6963 133.49 42.3363C131.81 43.3123 130.914 44.2883 130.914 45.6483ZM132.482 45.5203C132.482 44.7843 133.058 44.2563 134.386 43.3763L136.162 45.4243C135.49 46.0163 134.722 46.6563 133.826 46.6563C133.058 46.6563 132.482 46.1283 132.482 45.5203Z" class="a4b2a390-5a5a-4c22-b122-e3008dcd8ac3"></path>
<path d="M149.319 37.0883V48.0003H150.887V43.2483H151.591C152.359 43.2483 153.047 43.5843 154.151 45.3123L155.879 48.0003H157.735L155.815 45.0883C154.759 43.4883 154.455 43.2323 153.815 42.8163C155.015 42.3363 155.639 41.3923 155.639 40.1283C155.639 38.5283 154.503 37.0883 152.327 37.0883H149.319ZM150.887 38.4643H152.215C153.399 38.4643 154.039 39.0723 154.039 40.1283C154.039 41.5843 153.031 41.8723 151.895 41.8723H150.887V38.4643Z" class="a4b2a390-5a5a-4c22-b122-e3008dcd8ac3"></path>
<path d="M160.528 37.0883V48.0003H166.864V46.5923H162.096V43.2003H166.56V41.8083H162.096V38.4803H166.72V37.0883H160.528Z" class="a4b2a390-5a5a-4c22-b122-e3008dcd8ac3"></path>
<path d="M173.256 36.9443C171.384 36.9443 170.04 38.1123 170.04 39.6643C170.04 41.0083 170.648 41.8723 172.264 42.8163C174.424 44.0803 174.632 44.5763 174.632 45.3123C174.632 46.1603 173.944 46.7523 173.032 46.7523C171.896 46.7523 170.856 46.1603 170.088 45.1523V47.1363C170.952 47.7763 171.96 48.1443 173.032 48.1443C174.936 48.1443 176.2 46.8963 176.2 45.2963C176.2 43.8083 175.704 43.0403 173.4 41.7123C171.736 40.7523 171.608 40.2243 171.608 39.6163C171.608 38.8643 172.216 38.3523 173.208 38.3523C174.184 38.3523 175.032 38.7683 175.768 39.4883V37.7123C175.016 37.2163 174.152 36.9443 173.256 36.9443Z" class="a4b2a390-5a5a-4c22-b122-e3008dcd8ac3"></path>
<path d="M185.057 36.9443C181.265 36.9443 179.217 39.7283 179.217 42.5763C179.217 45.5683 181.521 48.1443 184.977 48.1443C188.769 48.1443 190.945 45.4403 190.945 42.5283C190.945 39.4243 188.529 36.9443 185.057 36.9443ZM185.105 38.4163C187.905 38.4163 189.329 40.6563 189.329 42.5123C189.329 45.2963 187.329 46.6723 185.009 46.6723C182.769 46.6723 180.833 44.9923 180.833 42.5763C180.833 40.2563 182.401 38.4163 185.105 38.4163Z" class="a4b2a390-5a5a-4c22-b122-e3008dcd8ac3"></path>
<path d="M194.469 37.0883V48.0003H196.037V43.2483H196.741C197.509 43.2483 198.197 43.5843 199.301 45.3123L201.029 48.0003H202.885L200.965 45.0883C199.909 43.4883 199.605 43.2323 198.965 42.8163C200.165 42.3363 200.789 41.3923 200.789 40.1283C200.789 38.5283 199.653 37.0883 197.477 37.0883H194.469ZM196.037 38.4643H197.365C198.549 38.4643 199.189 39.0723 199.189 40.1283C199.189 41.5843 198.181 41.8723 197.045 41.8723H196.037V38.4643Z" class="a4b2a390-5a5a-4c22-b122-e3008dcd8ac3"></path>
<path d="M204 37.0883V38.4643H207.744V48.0003H209.312V38.4643H213.12V37.0883H204Z" class="a4b2a390-5a5a-4c22-b122-e3008dcd8ac3"></path>
<path d="M218.969 36.9443C217.097 36.9443 215.753 38.1123 215.753 39.6643C215.753 41.0083 216.361 41.8723 217.977 42.8163C220.137 44.0803 220.345 44.5763 220.345 45.3123C220.345 46.1603 219.657 46.7523 218.745 46.7523C217.609 46.7523 216.569 46.1603 215.801 45.1523V47.1363C216.665 47.7763 217.673 48.1443 218.745 48.1443C220.649 48.1443 221.913 46.8963 221.913 45.2963C221.913 43.8083 221.417 43.0403 219.113 41.7123C217.449 40.7523 217.321 40.2243 217.321 39.6163C217.321 38.8643 217.929 38.3523 218.921 38.3523C219.897 38.3523 220.745 38.7683 221.481 39.4883V37.7123C220.729 37.2163 219.865 36.9443 218.969 36.9443Z" class="a4b2a390-5a5a-4c22-b122-e3008dcd8ac3"></path>
<path d="M17.8501 51.82V50.45C18.8282 50.1843 19.8366 50.0465 20.8501 50.04C21.8438 50.05 22.8332 50.1708 23.8001 50.4H23.8601V51.78H23.7601C22.8055 51.559 21.8299 51.4417 20.8501 51.43C19.8702 51.4374 18.8954 51.5719 17.9501 51.83L17.8501 51.82ZM18.0001 50.57V51.57C18.9278 51.3283 19.8815 51.2007 20.8401 51.19C21.799 51.2005 22.7542 51.3111 23.6901 51.52V50.52C22.7554 50.3029 21.7997 50.1889 20.8401 50.18C19.8808 50.1897 18.9265 50.3207 18.0001 50.57Z" class="a4b2a390-5a5a-4c22-b122-e3008dcd8ac3"></path>
<path d="M20.85 59.68L20.29 59L37.51 44.55C38.4254 43.7495 39.2025 42.8034 39.81 41.75C40.526 40.45 40.9332 39.0026 41 37.52V5.43C39.76 5.81 36.63 6.43 30.93 5.7C26.9322 5.12589 23.2019 3.35487 20.23 0.62L20.85 0C23.6832 2.57537 27.2145 4.25578 31 4.83C38.22 5.76 41.18 4.43 41.21 4.42L41.83 4.13V37.51C41.7796 39.1265 41.3516 40.7087 40.58 42.13C39.9228 43.2965 39.0705 44.3416 38.06 45.22L20.85 59.68ZM20.85 56.14L20.29 55.46L23.29 52.92V52C22.4744 51.829 21.6434 51.7419 20.81 51.74V50.86C21.6428 50.8637 22.4732 50.9474 23.29 51.11V50.8C22.4739 50.6307 21.6434 50.5403 20.81 50.53C19.9712 50.5432 19.1364 50.6471 18.32 50.84V51.14C19.1379 50.9586 19.9723 50.8614 20.81 50.85V51.73C19.9712 51.7425 19.1363 51.8465 18.32 52.04V53.04H17.44V47.44L20.85 44L24.22 47.43V52.17L29.42 47.82L35.09 43C35.9261 42.3257 36.6081 41.48 37.09 40.52C37.6236 39.3356 37.9936 38.0841 38.19 36.8V8.8C35.126 9.08268 32.0378 8.94812 29.01 8.4C25.7174 7.95234 22.6383 6.51566 20.18 4.28L20.82 3.67C23.1621 5.77626 26.0804 7.13439 29.2 7.57C32.2947 8.15942 35.4615 8.27071 38.59 7.9L39.11 7.81V36.9C38.9045 38.2829 38.5039 39.6297 37.92 40.9C37.3757 41.9872 36.597 42.9401 35.64 43.69L30 48.51L20.85 56.14ZM18.37 48V50C19.1879 49.8186 20.0223 49.7214 20.86 49.71C21.6925 49.7184 22.5226 49.8021 23.34 49.96V48C22.5241 47.8295 21.6935 47.7391 20.86 47.73C20.0227 47.7298 19.1878 47.8203 18.37 48ZM20.85 45.27L19.2 47C19.7497 46.9203 20.3045 46.8802 20.86 46.88C21.4118 46.8818 21.9629 46.9185 22.51 46.99L20.85 45.27ZM12.38 48.42H11.5V42.83L9.5 40.83L6.75 34L10.75 32.32L12.59 32.9L12.95 34.26L14.11 34.06V31.51L18.16 30.83L19.8 32.06V33.62H20.88V34.5H18.88V32.5L17.88 31.76L14.93 32.26V34.83L12.24 35.29L11.81 33.62L10.74 33.27L7.89 34.49L9.23 37.79C12.9958 36.6469 16.9048 36.0442 20.84 36C24.9103 36.0378 28.9532 36.6712 32.84 37.88L32.56 38.71C30.992 38.211 29.3915 37.8201 27.77 37.54L28.63 38.48L28.37 40.2L29.66 41.47L29.56 42.14L29.83 42.21L29.59 43.05C26.7522 42.3557 23.8415 42.0032 20.92 42V41.13C21.66 41.13 22.37 41.13 23.04 41.19V40.98L22.09 40.18H19.65L18.57 40.98V41.2C19.31 41.2 20.08 41.13 20.88 41.13V42C18.0048 42.0121 15.1402 42.3476 12.34 43L12.38 48.42ZM10.27 40.35L12.08 42.16L11.98 41.49L13.27 40.22L13 38.5L13.84 37.57C12.3892 37.8231 10.9536 38.1569 9.54 38.57L10.27 40.35ZM12.93 41.79L13 42C13.5 41.9 14.15 41.77 14.92 41.64L14.77 40.71L14 40.83L12.93 41.79ZM26.78 41.58C27.55 41.7 28.2 41.83 28.7 41.94V41.79L27.7 40.79L26.94 40.67L26.78 41.58ZM15.59 40.58L15.74 41.51C16.35 41.42 17.02 41.34 17.74 41.28V41.1L16.47 40.45L15.59 40.58ZM23.92 41.27C24.63 41.33 25.29 41.41 25.92 41.49L26.06 40.58L25.23 40.45L23.95 41.11L23.92 41.27ZM16.92 39.71L18.05 40.29L19.05 39.53V37.74L20.05 36.89C18.5102 36.9335 16.9742 37.067 15.45 37.29L16.59 37.93L16.92 39.71ZM22.74 39.54L23.62 40.29L24.75 39.71L25 37.93L26.16 37.28C24.6689 37.0637 23.1662 36.9368 21.66 36.9L22.72 37.73L22.74 39.54ZM25.65 39.63L27.54 39.91L27.71 38.82L26.9 37.93L25.82 38.54L25.65 39.63ZM14 38.77L14.17 39.86L16 39.58L15.83 38.49L14.75 37.88L14 38.77ZM20 39.26H21.91V38.16L20.91 37.4L19.98 38.16L20 39.26Z" class="a4b2a390-5a5a-4c22-b122-e3008dcd8ac3"></path>
<path d="M6.51 42.9C5.63739 42.2109 4.92438 41.3409 4.42 40.35C3.89376 39.1282 3.55657 37.8333 3.42 36.51V8.28C3.42 8.28 6.42 9.02 12.15 8.28C15.3055 7.8923 18.3155 6.72748 20.91 4.89V0C18.0874 2.4987 14.5651 4.06961 10.82 4.5C3.06 5.5 0 4.05 0 4.05V37.75C0.180295 39.324 0.598387 40.8615 1.24 42.31C1.8451 43.4771 2.69434 44.5003 3.73 45.31L20.86 59.68V55L6.51 42.9Z" class="a4b2a390-5a5a-4c22-b122-e3008dcd8ac3"></path>
<path d="M12 12.3398L8 20.3898L12 28.5198L15.74 20.3898L12 12.3398Z" class="a4b2a390-5a5a-4c22-b122-e3008dcd8ac3"></path>
<path d="M29.1899 7.99957C26.0955 7.67144 23.182 6.38084 20.8599 4.30957V34.4896H22.7199V32.4896L23.7199 31.7296L26.6699 32.2296V34.8196L29.3399 35.2996L29.7799 33.5796L30.8999 33.2396L33.7399 34.4796L31.3199 40.3796L29.2499 42.3796V48.3796L29.6999 48.0096L35.4599 43.0796C36.3003 42.2651 37.0028 41.3194 37.5399 40.2796C38.0878 39.0656 38.4421 37.7732 38.5899 36.4496V8.20957C38.5899 8.20957 35.6599 8.86957 29.1799 8.03957L29.1899 7.99957ZM29.6999 10.2896C29.6999 10.2896 28.7799 10.8096 28.7799 10.2896C28.7799 9.76957 29.6999 10.3196 29.6999 10.3196V10.2896ZM28.3399 13.3496L27.9999 12.8696L27.2999 13.0396C28.0599 12.3396 28.2999 10.1196 28.2999 10.1196C28.2999 10.1196 28.5499 12.3396 29.2999 13.0396L28.5799 12.8696L28.2699 13.3796L28.3399 13.3496ZM28.6899 21.9996C28.2199 21.9996 28.6899 21.1596 28.6899 21.1596C28.6899 21.1596 29.1599 21.9996 28.6899 21.9996ZM28.3399 8.99957C28.3399 8.99957 28.8599 9.91957 28.3399 9.91957C27.8199 9.91957 28.3399 8.93957 28.3399 8.93957V8.99957ZM27.1999 16.3896C27.1999 16.3896 26.3599 16.8596 26.3599 16.3896C26.3599 15.9196 27.1999 16.3896 27.1999 16.3896ZM25.9999 19.1696L25.6899 18.7096L25.0599 18.8596C25.7399 18.2296 25.9599 16.2096 25.9599 16.2096C26.0388 17.1532 26.3478 18.0631 26.8599 18.8596L26.2099 18.7096L25.9199 19.1696H25.9999ZM26.0499 27.9996C25.5799 27.9996 26.0499 27.1596 26.0499 27.1596C26.0499 27.1596 26.5099 27.9996 26.0499 27.9996ZM25.9999 15.1296C25.9999 15.1296 26.4699 15.9696 25.9999 15.9696C25.5299 15.9696 25.9999 15.1296 25.9999 15.1296ZM24.4699 10.3996C24.4699 10.3996 23.6399 10.8696 23.6399 10.3996C23.6399 9.92957 24.4699 10.3996 24.4699 10.3996ZM23.2299 13.1796L22.9199 12.7196L22.2899 12.8696C22.9799 12.2296 23.1899 10.2196 23.1899 10.2196C23.2714 11.1626 23.5802 12.0719 24.0899 12.8696L23.4399 12.7196L23.1499 13.1796H23.2299ZM23.3199 21.9996C22.8499 21.9996 23.3199 21.1596 23.3199 21.1596C23.3199 21.1596 23.7899 21.9996 23.3199 21.9996ZM23.2299 9.13957C23.2299 9.13957 23.6999 9.97957 23.2299 9.97957C22.7599 9.97957 23.2299 9.13957 23.2299 9.13957ZM22.8099 10.3996C22.8099 10.8696 21.9699 10.3996 21.9699 10.3996C21.9699 10.3996 22.8099 9.92957 22.8099 10.3996ZM22.8899 22.3996C22.8899 22.8696 22.0599 22.3996 22.0599 22.3996C22.0599 22.3996 22.8899 21.9196 22.8899 22.3896V22.3996ZM23.6099 24.7096L23.3199 25.1796L22.9999 24.6996L22.3699 24.8596C23.0599 24.2196 23.2699 22.1996 23.2699 22.1996C23.3498 23.1461 23.6587 24.059 24.1699 24.8596L23.5199 24.6996L23.6099 24.7096ZM23.7199 22.3996C23.7199 21.9296 24.5599 22.3996 24.5599 22.3996C24.5599 22.3996 23.7199 22.8596 23.7199 22.3896V22.3996ZM25.5399 16.3996C25.5399 16.8696 24.6999 16.3996 24.6999 16.3996C24.6999 16.3996 25.5399 15.9196 25.5399 16.3896V16.3996ZM25.6299 28.3996C25.6299 28.8696 24.7899 28.3996 24.7899 28.3996C24.7899 28.3996 25.6299 27.9096 25.6299 28.3796V28.3996ZM26.3399 30.7196L26.0499 31.1796L25.7399 30.7196L25.1099 30.8696C25.7999 30.2396 26.0099 28.2196 26.0099 28.2196C26.0888 29.1632 26.3978 30.0731 26.9099 30.8696L26.2499 30.7196H26.3399ZM26.4499 28.3996C26.4499 27.9296 27.2899 28.3996 27.2899 28.3996C27.2899 28.3996 26.4499 28.8496 26.4499 28.3796V28.3996ZM27.8699 10.3396C27.8699 10.8596 26.9499 10.3396 26.9499 10.3396C26.9499 10.3396 27.8699 9.79957 27.8699 10.3196V10.3396ZM28.2699 22.4096C28.2699 22.8796 27.4299 22.4096 27.4299 22.4096C27.4299 22.4096 28.2699 21.9196 28.2699 22.3896V22.4096ZM28.9999 24.6996L28.7099 25.1696L28.3999 24.6996L27.7699 24.8496C28.4599 24.2196 28.6699 22.1996 28.6699 22.1996C28.7483 23.1433 29.0573 24.0533 29.5699 24.8496L28.9999 24.6996ZM29.1099 22.3896C29.1099 21.9196 29.9499 22.3896 29.9499 22.3896C29.9499 22.3896 29.0899 22.8596 29.0899 22.3896H29.1099ZM35.5099 10.3896C35.5099 10.3896 34.6599 10.8596 34.6599 10.3896C34.6599 9.91957 35.4899 10.3996 35.4899 10.3996L35.5099 10.3896ZM35.2099 12.8596L34.5599 12.7096L34.2699 13.1696L33.9599 12.7096L33.3299 12.8596C33.8432 12.0637 34.1523 11.1535 34.2299 10.2096C34.3074 11.1535 34.6166 12.0637 35.1299 12.8596H35.2099ZM34.0599 21.9996C33.5899 21.9996 34.0599 21.1596 34.0599 21.1596C34.0599 21.1596 34.5299 21.9996 34.0599 21.9996ZM34.2399 9.16957C34.2399 9.16957 34.7099 10.0096 34.2399 10.0096C33.7699 10.0096 34.2399 9.13957 34.2399 9.13957V9.16957ZM32.5699 16.4196C32.5699 16.4196 31.7299 16.8896 31.7299 16.4196C31.7299 15.9496 32.5699 16.3896 32.5699 16.3896V16.4196ZM31.3299 19.1996L30.9999 18.7096L30.3699 18.8596C31.0599 18.2296 31.2699 16.2096 31.2699 16.2096H31.3199C31.3988 17.1532 31.7078 18.0631 32.2199 18.8596L31.5699 18.7096L31.2699 19.1696L31.3299 19.1996ZM31.4099 27.9996C30.9499 27.9996 31.4099 27.1596 31.4099 27.1596C31.4099 27.1596 31.8799 27.9996 31.4099 27.9996ZM31.3299 15.1696C31.3299 15.1696 31.7899 16.0096 31.3299 16.0096C30.8699 16.0096 31.3299 15.1296 31.3299 15.1296V15.1696ZM30.8999 16.4296C30.8999 16.8996 30.0699 16.4296 30.0699 16.4296C30.0699 16.4296 30.8999 15.9196 30.8999 16.3896V16.4296ZM30.9899 28.4296C30.9899 28.8996 30.1599 28.4296 30.1599 28.4296C30.1599 28.4296 30.9999 27.9096 30.9999 28.3796L30.9899 28.4296ZM31.7099 30.7496L31.4199 31.2096L31.1099 30.7496L30.4799 30.8996C31.1699 30.2696 31.3799 28.2496 31.3799 28.2496C31.4614 29.1926 31.7702 30.1019 32.2799 30.8996L31.6299 30.7496H31.7099ZM31.8199 28.4296C31.8199 27.9596 32.6599 28.4296 32.6599 28.4296C32.6599 28.4296 31.8199 28.8496 31.8199 28.3796V28.4296ZM33.8199 10.4296C33.8199 10.8996 32.9799 10.4296 32.9799 10.4296C32.9799 10.4296 33.8199 9.92957 33.8199 10.3996V10.4296ZM33.6299 22.4296C33.6299 22.8996 32.7899 22.4296 32.7899 22.4296C32.7899 22.4296 33.6299 21.9196 33.6299 22.3896V22.4296ZM34.3499 24.7396L34.0599 25.2096L33.7499 24.7396L33.1099 24.8896C33.7999 24.2596 34.0199 22.2396 34.0199 22.2396C34.0983 23.1833 34.4073 24.0933 34.9199 24.8896L34.2599 24.7396H34.3499ZM34.4599 22.4296C34.4599 21.9596 35.2899 22.4296 35.2899 22.4296C35.2899 22.4296 34.4599 22.8596 34.4599 22.3896V22.4296ZM37.9399 16.4296C37.9399 16.4296 37.0999 16.8996 37.0999 16.4296C37.0999 15.9596 37.9399 16.3896 37.9399 16.3896V16.4296ZM36.6999 19.1696L36.3899 18.7096L35.7599 18.8596C36.4499 18.2296 36.6599 16.2096 36.6599 16.2096C36.741 17.1527 37.0499 18.0621 37.5599 18.8596L36.9999 18.7096L36.7099 19.1696H36.6999ZM36.7899 27.9996C36.3099 27.9996 36.7899 27.1596 36.7899 27.1596C36.7899 27.1596 37.2499 27.9996 36.7899 27.9996ZM36.6899 15.1696C36.6899 15.1696 37.1599 16.0096 36.6899 16.0096C36.2199 16.0096 36.6899 15.1296 36.6899 15.1296V15.1696ZM36.2699 16.4296C36.2699 16.8996 35.4299 16.4296 35.4299 16.4296C35.4299 16.4296 36.2699 15.9196 36.2699 16.3896V16.4296ZM36.3599 28.4296C36.3599 28.8996 35.5199 28.4296 35.5199 28.4296C35.5199 28.4296 36.3599 27.9096 36.3599 28.3796V28.4296ZM37.0799 30.7496L36.7899 31.2096L36.4799 30.7496L35.8499 30.8996C36.5299 30.2696 36.7499 28.2496 36.7499 28.2496C36.8314 29.1926 37.1402 30.1019 37.6499 30.8996L36.9999 30.7496H37.0799ZM37.1899 28.4296C37.1899 27.9596 38.0199 28.4296 38.0199 28.4296C38.0199 28.4296 37.1899 28.8496 37.1899 28.3796V28.4296Z" class="a4b2a390-5a5a-4c22-b122-e3008dcd8ac3"></path>
</svg>