<svg xmlns="http://www.w3.org/2000/svg" xmlns:xlink="http://www.w3.org/1999/xlink" x="0px" y="0px" viewBox="0 0 1402.223 555.556" enable-background="new 0 0 1402.223 555.556" xml:space="preserve"><g><path d="M525.544,124.801c46.138,24.343,77.665,59.881,82.312,141.069c0,68.89,0,271.454,0,271.454H485.701V318.559
		c0-43.113,0-67.861-11.176-85.426c-9.582-15.967-28.741-23.953-46.307-23.953c-10.379,0-39.125,2.396-54.294,29.543
		c-9.582,16.762-8.785,34.327-8.785,71.854v226.748H242.982V289.818c0-39.917-5.579-57.483-23.951-69.46
		c-10.375-7.187-23.149-10.379-35.923-10.379c-5.588,0-21.56,0-35.131,10.379c-25.549,19.162-26.351,51.895-26.351,79.039v237.928
		H0.272c0,0-0.325-207.584-0.265-270.582c6.238-82.061,41.884-118.628,86.636-142.683c59.142-31.791,168.606-39.686,226.02,15.525
		c-7.087,13.047-19.857,29.651-23.716,52.304C341.313,95.412,454.07,87.095,525.544,124.801z" fill="#1055c4"></path> <path d="M813.066,205.987v186.827c0,16.764-0.797,26.346,3.197,33.533c7.182,13.57,26.346,13.57,28.746,13.57
		c14.367,0,28.74-0.797,43.109-0.797v95.01c-7.979,1.598-36.725,6.389-64.674,6.389c-8.779,0-17.561,0-25.539-0.801
		c-11.182-0.797-47.91,0-75.855-25.549c-31.938-27.943-30.339-70.258-30.339-108.584V205.188h-60.68v-75.052h60.68V0h121.354
		v130.939h81.438v75.048H813.066z" fill="#1055c4"></path> <path d="M1267.896,479.039c-55.092,64.674-126.15,71.859-156.49,71.859c-18.363,0-55.088-2.395-97.404-23.156
		c-78.242-38.324-109.379-112.574-109.379-195.611c0-19.16,0.797-59.079,20.754-105.383
		c47.107-109.387,150.102-118.169,188.424-118.169c32.736,0,106.189,6.387,162.078,76.651c4.787,6.387,7.984,11.178,15.967,23.953
		l-91.02,51.895c-0.797-2.396-7.186-15.172-13.57-23.955c-7.188-8.783-30.428-31.756-67.861-34.327
		c-21.539-1.479-45.242,4.065-66.498,21.07c-41.398,33.119-44.307,96.297-44.307,104.276c0,35.928,9.92,84.969,39.918,105.393
		c22.141,15.076,48.238,22.283,74.875,19.957c39.779-3.475,61.498-27.129,68.664-37.521c4.592-6.658,7.168-10.158,14.744-23.318
		l89.842,46.467C1287.852,452.697,1278.275,467.062,1267.896,479.039" fill="#1055c4"></path> <g><path d="M1311.33,509.396c0-11.961,8.439-39.393,43.617-39.393c20.395,0,39.395,16.178,39.395,42.209
			c0,23.213-17.588,38.686-39.395,38.686C1339.465,550.898,1311.33,542.457,1311.33,509.396z" fill="#1055c4"></path></g></g></svg>