<?xml version="1.0" encoding="utf-8"?>
<!-- Generator: Adobe Illustrator 25.2.1, SVG Export Plug-In . SVG Version: 6.00 Build 0)  -->
<svg version="1.1" id="Layer_1" xmlns="http://www.w3.org/2000/svg" xmlns:xlink="http://www.w3.org/1999/xlink" x="0px" y="0px"
	 viewBox="0 0 317.4 115.8" style="enable-background:new 0 0 317.4 115.8;" xml:space="preserve">
<g id="Layer_1-2">
	<path fill="#06549E" d="M38.1,5.1l-5.1,9.7c-5.7-2.9-10.3-4.4-13.6-4.4c-1.9,0-3.1,0.7-3.1,2c0,4.7,21.7,2.6,21.7,16.8
		c0,8.6-7.4,13.8-18.3,13.8c-7,0.1-13.8-1.9-19.6-5.9l4.8-9.7c5.2,3.4,10.5,5.1,15.1,5.1c2.1,0,3.5-0.6,3.5-1.9
		C23.3,25.9,2,28.2,2,14C2,5.2,9.3,0,19.8,0C26.2,0.1,32.5,1.8,38.1,5.1z"/>
	<path fill="#06549E" d="M84.5,15.9v26.4H69v-22c0-4.1-2.4-6.7-6-6.7c-4.2,0.1-6.8,3.4-6.8,8.1v20.6H40.7V0.6h15.5v6.4
		c2.9-4.6,7.4-7,13.2-7C78.3,0,84.5,6.2,84.5,15.9z"/>
	<path fill="#06549E" d="M127.9,15.2v27h-15.2v-4.6c-2.5,3.4-6.7,5.4-12.2,5.4c-8.9,0-14.1-5.3-14.1-13.1c0-8,5.6-12.5,16.1-12.6h10.2
		v-0.1c0-3.4-2.4-5.5-7.2-5.5c-4.3,0.2-8.6,1.2-12.6,3L89.2,4.3c6.3-2.7,13.2-4.2,20.1-4.3C121,0,127.9,5.6,127.9,15.2z M112.8,28.6
		v-3.8h-7c-3.1,0-4.7,1.3-4.7,3.9s1.7,4.1,4.7,4.1C108.8,32.9,111.5,31.2,112.8,28.6z"/>
	<path fill="#06549E" d="M176.8,21.8c0,12.8-7.4,21.1-18.9,21.1c-4.5,0.1-8.9-1.8-11.8-5.4v20.1h-15.5V0.7h15.5v4.8
		c2.8-3.5,7-5.4,11.4-5.4C169.2,0.2,176.8,8.8,176.8,21.8z M161.2,21.4c0-5.5-3-9.3-7.6-9.3c-4.4,0-7.5,3.8-7.5,9.3s3.1,9.3,7.5,9.3
		C158.2,30.7,161.2,26.9,161.2,21.4z"/>
	<path fill="#06549E" d="M224.7,21.8c0,12.8-7.4,21.1-18.9,21.1c-4.5,0.1-8.9-1.9-11.8-5.4v20.1h-15.5V0.7H194v4.8
		c2.8-3.5,7-5.4,11.4-5.4C217,0.2,224.7,8.8,224.7,21.8z M209.1,21.4c0-5.5-3-9.3-7.6-9.3c-4.4,0-7.5,3.8-7.5,9.3s3.1,9.3,7.5,9.3
		C206.1,30.7,209.1,26.9,209.1,21.4z"/>
	<path fill="#06549E" d="M250.6,45.9c-3.3,8.2-9,12-17.3,12c-4.9,0.1-9.6-1.6-13.4-4.6l6.4-10.3c1.5,1.5,3.5,2.4,5.6,2.4
		c1.9,0.1,3.7-0.9,4.5-2.7l0.8-1.5L220,0.7h15.8l9.1,25.5l7.7-25.5H268L250.6,45.9z"/>
	<path fill="#E42833" d="M38.1,63.5l-5.1,9.7c-5.7-2.9-10.3-4.4-13.6-4.4c-1.9,0-3.1,0.7-3.1,2c0,4.7,21.7,2.6,21.7,16.8
		c0,8.6-7.4,13.8-18.3,13.8c-7,0.1-13.8-1.9-19.6-5.9l4.8-9.7C10,89.2,15.2,91,19.8,91c2.1,0,3.5-0.6,3.5-1.9
		C23.3,84.3,2,86.6,2,72.3c0-8.7,7.3-13.9,17.8-13.9C26.2,58.5,32.5,60.2,38.1,63.5z"/>
	<path fill="#E42833" d="M84.5,74.3v26.4H69v-22c0-4.1-2.3-6.8-6-6.8c-4.2,0.1-6.8,3.4-6.8,8.1v20.6H40.7V43.9h15.5v21.6
		c2.9-4.6,7.4-7,13.2-7C78.4,58.5,84.5,64.7,84.5,74.3z"/>
	<path fill="#E42833" d="M127.9,79.9c0,12.9-8.2,21.4-20.7,21.4s-20.7-8.5-20.7-21.4s8.2-21.4,20.7-21.4S127.9,67,127.9,79.9z
		 M99.5,79.8c0,5.6,3.1,9.3,7.8,9.3s7.7-3.7,7.7-9.3s-3.1-9.3-7.7-9.3S99.5,74.3,99.5,79.8z"/>
	<path fill="#E42833" d="M176.8,80.3c0,12.8-7.4,21.1-18.9,21.1c-4.5,0.1-8.9-1.9-11.8-5.4v19.7h-15.5V59.2h15.5v4.8
		c2.8-3.5,7-5.4,11.4-5.4C169.2,58.7,176.8,67.3,176.8,80.3z M161.2,79.9c0-5.5-3-9.3-7.6-9.3c-4.4,0-7.5,3.8-7.5,9.3
		s3.1,9.3,7.5,9.3C158.2,89.2,161.2,85.4,161.2,79.9z"/>
	<path fill="#E42833" d="M224.7,80.3c0,12.8-7.4,21.1-18.9,21.1c-4.5,0.1-8.9-1.9-11.8-5.4v19.7h-15.5V59.2H194v4.8
		c2.8-3.5,7-5.5,11.4-5.4C217,58.7,224.7,67.3,224.7,80.3z M209.1,79.9c0-5.5-3-9.3-7.6-9.3c-4.4,0-7.5,3.8-7.5,9.3s3.1,9.3,7.5,9.3
		C206.1,89.2,209.1,85.4,209.1,79.9z"/>
	<path fill="#E42833" d="M269.8,83.8h-28c1.2,4,4.1,6.2,8.1,6.2c3.5-0.1,6.7-1.6,9.2-4l8,7.9c-4.4,4.8-10.6,7.5-18.5,7.5
		c-13.9,0-22.4-8.4-22.4-21.2c0-13,8.8-21.5,22-21.5C262.7,58.7,270.7,68.5,269.8,83.8z M254.5,76.2c0.1-4.1-2.5-7-6.3-7
		c-3.6,0-6,2.8-6.8,7H254.5z"/>
	<path fill="#E42833" d="M286.6,65.8c2.8-4.6,7.8-7.3,13.1-7.2v13.9c-8-1-13.1,2.4-13.1,8.4v19.9h-15.5V59.2h15.5V65.8z"/>
	<path fill="#E42833" d="M276.3,8.1c0.4-1.6,1.7-3.4,3.3-3.4h4.4c0,4.4,0.8,4.4,1.7,4.4h10c0.9,0,1.7,0,1.7-4.4h4.4
		c1.6,0,2.9,1.9,3.3,3.4l2.4,11.6h3.5L308.2,7c-0.7-3.1-3.4-6.3-6.5-6.3h-22.2c-3.1,0-5.8,3.3-6.5,6.3l-2.6,12.6h3.5L276.3,8.1z"/>
	<path fill="#06549E" d="M281.2,41c-4.1,0-7.4,3.3-7.4,7.4c0,4.1,3.3,7.4,7.4,7.4c4.1,0,7.4-3.3,7.4-7.4c0,0,0,0,0,0
		C288.6,44.3,285.3,41,281.2,41C281.2,41,281.2,41,281.2,41z M283.7,48.4c0,1.4-1.1,2.5-2.5,2.5s-2.5-1.1-2.5-2.5s1.1-2.5,2.5-2.5
		l0,0C282.5,45.9,283.7,47,283.7,48.4L283.7,48.4z"/>
	<path fill="#06549E" d="M300,41c-4.1,0-7.4,3.3-7.4,7.4s3.3,7.4,7.4,7.4c4.1,0,7.4-3.3,7.4-7.4c0,0,0,0,0,0
		C307.4,44.3,304.1,41,300,41z M302.5,48.4c0,1.4-1.2,2.5-2.6,2.5c-1.4,0-2.5-1.2-2.5-2.6c0-1.4,1.1-2.5,2.5-2.5
		C301.4,45.8,302.5,46.9,302.5,48.4C302.6,48.4,302.6,48.4,302.5,48.4L302.5,48.4z"/>
	<path fill="#E42833" d="M314.1,19.7h-46.9c-1.8,0-3.3,1.5-3.3,3.3s1.5,3.3,3.3,3.3l0,0h0.4l3,17.9c0.2,1.1,0.9,2.2,1.9,2.8
		c0.6-4.9,5.1-8.3,9.9-7.7c4.2,0.5,7.4,3.9,7.7,8.1h1.1c0.4-4.9,4.6-8.5,9.5-8.2c4.2,0.3,7.6,3.5,8.1,7.7c1-0.7,1.7-1.7,1.9-2.8
		l3-17.9h0.4c1.8,0,3.3-1.5,3.3-3.3S315.9,19.6,314.1,19.7L314.1,19.7z M275.3,28.3h0.1c0.1,0,0.3,0,0.4,0H275.3z M285.4,28.3h0.2
		h0.2H285.4z M295.4,28.3h0.2h0.2H295.4z M305.4,28.3c0.1,0,0.3,0,0.4,0h0.1H305.4z"/>
	<path fill="#E42833" d="M285.5,29h0.4h-0.2H285.5z"/>
	<path fill="#E42833" d="M295.3,29h0.4h-0.2H295.3z"/>
	<path fill="#E42833" d="M305,29h0.5h-0.1C305.3,29,305.1,29,305,29z"/>
</g>
</svg>
