<svg xmlns="http://www.w3.org/2000/svg" width="183.958" height="67.078" viewBox="0 0 183.958 67.078"><g id="Group_1" data-name="Group 1" transform="translate(-349.271 -265.357)"><path id="Path_1" data-name="Path 1" d="M371.3,268.314l-2.957,5.624c-3.3-1.681-5.972-2.551-7.885-2.551-1.1,0-1.8.406-1.8,1.16,0,2.725,12.581,1.507,12.581,9.74,0,4.986-4.29,8-10.61,8a19.417,19.417,0,0,1-11.363-3.421l2.783-5.624a16.44,16.44,0,0,0,8.754,2.957c1.217,0,2.029-.348,2.029-1.1-.116-2.725-12.465-1.391-12.465-9.624,0-5.1,4.232-8.117,10.32-8.117A21.51,21.51,0,0,1,371.3,268.314Z" fill="#ffffff"/><path id="Path_2" data-name="Path 2" d="M589.982,274.575v15.306H581V277.126c0-2.377-1.391-3.884-3.479-3.884-2.435.058-3.942,1.971-3.942,4.7v11.943h-8.986V265.7h8.986v3.71a8.543,8.543,0,0,1,7.653-4.058C586.387,265.357,589.982,268.951,589.982,274.575Z" transform="translate(-191.779)" fill="#ffffff"/><path id="Path_3" data-name="Path 3" d="M831.013,274.169v15.654H822.2v-2.667c-1.449,1.971-3.884,3.131-7.073,3.131-5.16,0-8.175-3.073-8.175-7.595,0-4.638,3.247-7.247,9.334-7.305H822.2v-.058c0-1.971-1.391-3.189-4.174-3.189a20.116,20.116,0,0,0-7.305,1.739l-2.145-6.029a30.891,30.891,0,0,1,11.653-2.493C827.013,265.357,831.013,268.6,831.013,274.169Zm-8.754,7.769v-2.2H818.2c-1.8,0-2.725.754-2.725,2.261s.986,2.377,2.725,2.377A4.384,4.384,0,0,0,822.259,281.938Z" transform="translate(-407.649)" fill="#ffffff"/><path id="Path_4" data-name="Path 4" d="M1068.148,278.468c0,7.421-4.29,12.233-10.958,12.233a8.513,8.513,0,0,1-6.841-3.131v11.653h-8.986V266.235h8.986v2.783a8.41,8.41,0,0,1,6.609-3.131C1063.742,265.945,1068.148,270.931,1068.148,278.468Zm-9.044-.232c0-3.189-1.74-5.392-4.406-5.392-2.551,0-4.348,2.2-4.348,5.392s1.8,5.392,4.348,5.392C1057.364,283.628,1059.1,281.425,1059.1,278.236Z" transform="translate(-616.433 -0.472)" fill="#ffffff"/><path id="Path_5" data-name="Path 5" d="M1322.18,278.468c0,7.421-4.29,12.233-10.958,12.233a8.69,8.69,0,0,1-6.841-3.131v11.653H1295.4V266.235h8.986v2.783a8.409,8.409,0,0,1,6.609-3.131C1317.716,265.945,1322.18,270.931,1322.18,278.468Zm-9.044-.232c0-3.189-1.739-5.392-4.406-5.392-2.551,0-4.348,2.2-4.348,5.392s1.8,5.392,4.348,5.392C1311.4,283.628,1313.136,281.425,1313.136,278.236Z" transform="translate(-842.695 -0.472)" fill="#ffffff"/><path id="Path_6" data-name="Path 6" d="M1532.755,295.274c-1.913,4.754-5.218,6.957-10.03,6.957a12.151,12.151,0,0,1-7.769-2.667l3.71-5.972a4.617,4.617,0,0,0,3.247,1.392,2.663,2.663,0,0,0,2.609-1.565l.464-.87-9.972-23.48h9.16l5.276,14.784,4.464-14.784h8.928Z" transform="translate(-1038.253 -3.306)" fill="#ffffff"/><path id="Path_7" data-name="Path 7" d="M371.3,578.032l-2.957,5.624c-3.3-1.681-5.972-2.551-7.885-2.551-1.1,0-1.8.406-1.8,1.16,0,2.725,12.581,1.507,12.581,9.74,0,4.986-4.29,8-10.61,8a19.416,19.416,0,0,1-11.363-3.421l2.783-5.624a16.049,16.049,0,0,0,8.638,3.015c1.217,0,2.029-.348,2.029-1.1,0-2.783-12.349-1.449-12.349-9.74,0-5.044,4.232-8.059,10.32-8.059A21.509,21.509,0,0,1,371.3,578.032Z" transform="translate(0 -275.86)" fill="#ffffff"/><path id="Path_8" data-name="Path 8" d="M589.982,515.8v15.306H581V518.351c0-2.377-1.333-3.942-3.479-3.942-2.435.058-3.942,1.971-3.942,4.7v11.943h-8.986V498.175h8.986V510.7a8.543,8.543,0,0,1,7.653-4.058C586.445,506.639,589.982,510.234,589.982,515.8Z" transform="translate(-191.779 -207.367)" fill="#ffffff"/><path id="Path_9" data-name="Path 9" d="M831.485,588.012c0,7.479-4.754,12.407-12,12.407s-12-4.928-12-12.407,4.754-12.407,12-12.407S831.485,580.533,831.485,588.012Zm-16.465-.058c0,3.247,1.8,5.392,4.522,5.392s4.464-2.145,4.464-5.392-1.8-5.392-4.464-5.392S815.02,584.765,815.02,587.954Z" transform="translate(-408.121 -276.332)" fill="#ffffff"/><path id="Path_10" data-name="Path 10" d="M1068.148,588.716c0,7.421-4.29,12.233-10.958,12.233a8.689,8.689,0,0,1-6.841-3.131v11.421h-8.986V576.483h8.986v2.783a8.41,8.41,0,0,1,6.609-3.131C1063.742,576.193,1068.148,581.179,1068.148,588.716Zm-9.044-.232c0-3.189-1.74-5.392-4.406-5.392-2.551,0-4.348,2.2-4.348,5.392s1.8,5.392,4.348,5.392C1057.364,593.876,1059.1,591.673,1059.1,588.484Z" transform="translate(-616.433 -276.804)" fill="#ffffff"/><path id="Path_11" data-name="Path 11" d="M1322.18,588.7c0,7.421-4.29,12.233-10.958,12.233a8.689,8.689,0,0,1-6.841-3.131v11.421H1295.4V576.466h8.986v2.783a8.236,8.236,0,0,1,6.609-3.131C1317.716,576.176,1322.18,581.162,1322.18,588.7Zm-9.044-.232c0-3.189-1.739-5.392-4.406-5.392-2.551,0-4.348,2.2-4.348,5.392s1.8,5.392,4.348,5.392C1311.4,593.859,1313.136,591.656,1313.136,588.467Z" transform="translate(-842.695 -276.787)" fill="#ffffff"/><path id="Path_12" data-name="Path 12" d="M1573.644,591.218h-16.233a4.652,4.652,0,0,0,4.7,3.594,8.027,8.027,0,0,0,5.334-2.319l4.638,4.58a13.953,13.953,0,0,1-10.726,4.348c-8.059,0-12.987-4.87-12.987-12.291,0-7.537,5.1-12.465,12.755-12.465C1569.528,576.666,1574.166,582.348,1573.644,591.218Zm-8.87-4.406a3.649,3.649,0,0,0-3.653-4.058c-2.087,0-3.479,1.623-3.942,4.058Z" transform="translate(-1068.012 -277.277)" fill="#ffffff"/><path id="Path_13" data-name="Path 13" d="M1795.475,580.3a8.69,8.69,0,0,1,7.595-4.174v8.059c-4.638-.58-7.595,1.392-7.595,4.87v11.537h-8.986V576.47h8.986Z" transform="translate(-1280.103 -276.791)" fill="#ffffff"/><g id="Group_395" data-name="Group 395"><path id="Path_14" data-name="Path 14" d="M1786.2,273.359c.232-.928.985-1.971,1.913-1.971h2.551c0,2.551.464,2.551.986,2.551h5.8c.522,0,.986,0,.986-2.551h2.551c.928,0,1.681,1.1,1.913,1.971l1.391,6.725h2.029l-1.623-7.363c-.406-1.8-1.971-3.652-3.769-3.652h-12.871c-1.8,0-3.363,1.913-3.769,3.652l-1.507,7.305h2.029Z" transform="translate(-1276.796 -3.306)" fill="#ffffff"/><path id="Path_15" data-name="Path 15" d="M1805.1,482.8a4.29,4.29,0,1,0,4.29,4.29h0a4.28,4.28,0,0,0-4.29-4.29Zm1.449,4.29a1.449,1.449,0,1,1-1.449-1.449h0a1.472,1.472,0,0,1,1.449,1.449Z" transform="translate(-1292.856 -193.669)" fill="#ffffff"/><path id="Path_16" data-name="Path 16" d="M1904.8,482.8a4.29,4.29,0,1,0,4.29,4.29h0A4.281,4.281,0,0,0,1904.8,482.8Zm1.45,4.29a1.479,1.479,0,0,1-2.957-.058,1.435,1.435,0,0,1,1.45-1.449,1.462,1.462,0,0,1,1.507,1.507Z" transform="translate(-1381.661 -193.669)" fill="#ffffff"/><path id="Path_17" data-name="Path 17" d="M1777.409,369.811h-27.191a1.913,1.913,0,0,0,0,3.827h.232l1.739,10.378a2.449,2.449,0,0,0,1.1,1.623,5.145,5.145,0,0,1,5.74-4.464,5.074,5.074,0,0,1,4.464,4.7h.638a5.174,5.174,0,0,1,5.508-4.754,5.074,5.074,0,0,1,4.7,4.464,2.59,2.59,0,0,0,1.1-1.623l1.739-10.378h.232a1.93,1.93,0,0,0,1.913-1.913,1.845,1.845,0,0,0-1.913-1.855Zm-22.495,4.986h0Zm5.856,0h0Zm5.8,0h0Zm5.8,0h0Z" transform="translate(-1246.093 -93.032)" fill="#ffffff"/></g><path id="Path_18" data-name="Path 18" d="M1862.858,419.155h0Z" transform="translate(-1348.123 -136.985)" fill="#ffffff"/><path id="Path_19" data-name="Path 19" d="M1914.831,419.155h0Z" transform="translate(-1394.414 -136.985)" fill="#ffffff"/><path id="Path_20" data-name="Path 20" d="M1966.274,419.155h0Z" transform="translate(-1440.234 -136.985)" fill="#ffffff"/></g><script xmlns=""/></svg>